<?xml version="1.0" encoding="utf-8" standalone="no"?>
<!DOCTYPE svg PUBLIC "-//W3C//DTD SVG 1.1//EN"
  "http://www.w3.org/Graphics/SVG/1.1/DTD/svg11.dtd">
<svg xmlns:xlink="http://www.w3.org/1999/xlink" width="646.786562pt" height="568.478437pt" viewBox="0 0 646.786562 568.478437" xmlns="http://www.w3.org/2000/svg" version="1.1">
 <metadata>
  <rdf:RDF xmlns:dc="http://purl.org/dc/elements/1.1/" xmlns:cc="http://creativecommons.org/ns#" xmlns:rdf="http://www.w3.org/1999/02/22-rdf-syntax-ns#">
   <cc:Work>
    <dc:type rdf:resource="http://purl.org/dc/dcmitype/StillImage"/>
    <dc:format>image/svg+xml</dc:format>
    <dc:creator>
     <cc:Agent>
      <dc:title>Matplotlib v3.11.2, https://matplotlib.org/</dc:title>
     </cc:Agent>
    </dc:creator>
   </cc:Work>
  </rdf:RDF>
 </metadata>
 <defs>
  <style type="text/css">*{stroke-linejoin: round; stroke-linecap: butt}</style>
 </defs>
 <g id="figure_1">
  <g id="patch_1">
   <path d="M 0 568.478437 
L 646.786562 568.478437 
L 646.786562 0 
L 0 0 
z
" style="fill: #ffffff"/>
  </g>
  <g id="axes_1">
   <g id="patch_2">
    <path d="M 56.828906 127.227231 
L 639.586562 127.227231 
L 639.586562 7.2 
L 56.828906 7.2 
z
" style="fill: #ffffff"/>
   </g>
   <g id="matplotlib.axis_1">
    <g id="xtick_1">
     <g id="line2d_1">
      <path d="M 83.317891 127.227231 
L 83.317891 7.2 
" clip-path="url(#p4fc2c55228)" style="fill: none; stroke: #b0b0b0; stroke-opacity: 0.15; stroke-width: 0.8; stroke-linecap: square"/>
     </g>
     <g id="line2d_2">
      <defs>
       <path id="m66b865cbd8" d="M 0 0 
L 0 3.5 
" style="stroke: #000000; stroke-width: 0.8"/>
      </defs>
      <g>
       <use xlink:href="#m66b865cbd8" x="83.317891" y="127.227231" style="stroke: #000000; stroke-width: 0.8"/>
      </g>
     </g>
    </g>
    <g id="xtick_2">
     <g id="line2d_3">
      <path d="M 171.614505 127.227231 
L 171.614505 7.2 
" clip-path="url(#p4fc2c55228)" style="fill: none; stroke: #b0b0b0; stroke-opacity: 0.15; stroke-width: 0.8; stroke-linecap: square"/>
     </g>
     <g id="line2d_4">
      <g>
       <use xlink:href="#m66b865cbd8" x="171.614505" y="127.227231" style="stroke: #000000; stroke-width: 0.8"/>
      </g>
     </g>
    </g>
    <g id="xtick_3">
     <g id="line2d_5">
      <path d="M 259.91112 127.227231 
L 259.91112 7.2 
" clip-path="url(#p4fc2c55228)" style="fill: none; stroke: #b0b0b0; stroke-opacity: 0.15; stroke-width: 0.8; stroke-linecap: square"/>
     </g>
     <g id="line2d_6">
      <g>
       <use xlink:href="#m66b865cbd8" x="259.91112" y="127.227231" style="stroke: #000000; stroke-width: 0.8"/>
      </g>
     </g>
    </g>
    <g id="xtick_4">
     <g id="line2d_7">
      <path d="M 348.207734 127.227231 
L 348.207734 7.2 
" clip-path="url(#p4fc2c55228)" style="fill: none; stroke: #b0b0b0; stroke-opacity: 0.15; stroke-width: 0.8; stroke-linecap: square"/>
     </g>
     <g id="line2d_8">
      <g>
       <use xlink:href="#m66b865cbd8" x="348.207734" y="127.227231" style="stroke: #000000; stroke-width: 0.8"/>
      </g>
     </g>
    </g>
    <g id="xtick_5">
     <g id="line2d_9">
      <path d="M 436.504349 127.227231 
L 436.504349 7.2 
" clip-path="url(#p4fc2c55228)" style="fill: none; stroke: #b0b0b0; stroke-opacity: 0.15; stroke-width: 0.8; stroke-linecap: square"/>
     </g>
     <g id="line2d_10">
      <g>
       <use xlink:href="#m66b865cbd8" x="436.504349" y="127.227231" style="stroke: #000000; stroke-width: 0.8"/>
      </g>
     </g>
    </g>
    <g id="xtick_6">
     <g id="line2d_11">
      <path d="M 524.800964 127.227231 
L 524.800964 7.2 
" clip-path="url(#p4fc2c55228)" style="fill: none; stroke: #b0b0b0; stroke-opacity: 0.15; stroke-width: 0.8; stroke-linecap: square"/>
     </g>
     <g id="line2d_12">
      <g>
       <use xlink:href="#m66b865cbd8" x="524.800964" y="127.227231" style="stroke: #000000; stroke-width: 0.8"/>
      </g>
     </g>
    </g>
    <g id="xtick_7">
     <g id="line2d_13">
      <path d="M 613.097578 127.227231 
L 613.097578 7.2 
" clip-path="url(#p4fc2c55228)" style="fill: none; stroke: #b0b0b0; stroke-opacity: 0.15; stroke-width: 0.8; stroke-linecap: square"/>
     </g>
     <g id="line2d_14">
      <g>
       <use xlink:href="#m66b865cbd8" x="613.097578" y="127.227231" style="stroke: #000000; stroke-width: 0.8"/>
      </g>
     </g>
    </g>
   </g>
   <g id="matplotlib.axis_2">
    <g id="ytick_1">
     <g id="line2d_15">
      <path d="M 56.828906 120.168523 
L 639.586562 120.168523 
" clip-path="url(#p4fc2c55228)" style="fill: none; stroke: #b0b0b0; stroke-opacity: 0.15; stroke-width: 0.8; stroke-linecap: square"/>
     </g>
     <g id="line2d_16">
      <defs>
       <path id="m9f419aeb48" d="M 0 0 
L -3.5 0 
" style="stroke: #000000; stroke-width: 0.8"/>
      </defs>
      <g>
       <use xlink:href="#m9f419aeb48" x="56.828906" y="120.168523" style="stroke: #000000; stroke-width: 0.8"/>
      </g>
     </g>
     <g id="text_1">
      <text style="font-size: 10px; font-family: 'DejaVu Sans'; text-anchor: end" x="49.828906" y="123.967351" transform="rotate(-0 49.828906 123.967351)">24</text>
     </g>
    </g>
    <g id="ytick_2">
     <g id="line2d_17">
      <path d="M 56.828906 94.12999 
L 639.586562 94.12999 
" clip-path="url(#p4fc2c55228)" style="fill: none; stroke: #b0b0b0; stroke-opacity: 0.15; stroke-width: 0.8; stroke-linecap: square"/>
     </g>
     <g id="line2d_18">
      <g>
       <use xlink:href="#m9f419aeb48" x="56.828906" y="94.12999" style="stroke: #000000; stroke-width: 0.8"/>
      </g>
     </g>
     <g id="text_2">
      <text style="font-size: 10px; font-family: 'DejaVu Sans'; text-anchor: end" x="49.828906" y="97.928818" transform="rotate(-0 49.828906 97.928818)">25</text>
     </g>
    </g>
    <g id="ytick_3">
     <g id="line2d_19">
      <path d="M 56.828906 68.091457 
L 639.586562 68.091457 
" clip-path="url(#p4fc2c55228)" style="fill: none; stroke: #b0b0b0; stroke-opacity: 0.15; stroke-width: 0.8; stroke-linecap: square"/>
     </g>
     <g id="line2d_20">
      <g>
       <use xlink:href="#m9f419aeb48" x="56.828906" y="68.091457" style="stroke: #000000; stroke-width: 0.8"/>
      </g>
     </g>
     <g id="text_3">
      <text style="font-size: 10px; font-family: 'DejaVu Sans'; text-anchor: end" x="49.828906" y="71.890285" transform="rotate(-0 49.828906 71.890285)">26</text>
     </g>
    </g>
    <g id="ytick_4">
     <g id="line2d_21">
      <path d="M 56.828906 42.052923 
L 639.586562 42.052923 
" clip-path="url(#p4fc2c55228)" style="fill: none; stroke: #b0b0b0; stroke-opacity: 0.15; stroke-width: 0.8; stroke-linecap: square"/>
     </g>
     <g id="line2d_22">
      <g>
       <use xlink:href="#m9f419aeb48" x="56.828906" y="42.052923" style="stroke: #000000; stroke-width: 0.8"/>
      </g>
     </g>
     <g id="text_4">
      <text style="font-size: 10px; font-family: 'DejaVu Sans'; text-anchor: end" x="49.828906" y="45.851752" transform="rotate(-0 49.828906 45.851752)">27</text>
     </g>
    </g>
    <g id="ytick_5">
     <g id="line2d_23">
      <path d="M 56.828906 16.01439 
L 639.586562 16.01439 
" clip-path="url(#p4fc2c55228)" style="fill: none; stroke: #b0b0b0; stroke-opacity: 0.15; stroke-width: 0.8; stroke-linecap: square"/>
     </g>
     <g id="line2d_24">
      <g>
       <use xlink:href="#m9f419aeb48" x="56.828906" y="16.01439" style="stroke: #000000; stroke-width: 0.8"/>
      </g>
     </g>
     <g id="text_5">
      <text style="font-size: 10px; font-family: 'DejaVu Sans'; text-anchor: end" x="49.828906" y="19.813218" transform="rotate(-0 49.828906 19.813218)">28</text>
     </g>
    </g>
    <g id="text_6">
     <text style="font-size: 10px; font-family: 'DejaVu Sans'; text-anchor: middle" x="30.701563" y="67.213615" transform="rotate(-90 30.701563 67.213615)">Temperature (°C)</text>
    </g>
   </g>
   <g id="line2d_25">
    <path d="M 83.317891 16.01439 
L 92.147552 12.655783 
L 98.328315 19.932204 
L 104.509078 26.87686 
L 110.689841 33.504877 
L 116.870604 39.828175 
L 123.051367 45.808417 
L 129.23213 51.463811 
L 135.412893 56.799541 
L 141.593656 61.821883 
L 147.774419 66.538439 
L 153.955182 70.958119 
L 160.135945 75.090901 
L 166.316708 78.94758 
L 172.497471 82.539552 
L 178.678234 85.878621 
L 184.858997 88.976841 
L 191.481243 92.042907 
L 198.10349 94.861383 
L 204.725736 97.447052 
L 211.789465 99.964843 
L 218.853194 102.251421 
L 226.358406 104.446115 
L 234.305102 106.527024 
L 242.251797 108.379263 
L 250.639975 110.108819 
L 259.469637 111.703343 
L 268.740781 113.154222 
L 278.894892 114.510899 
L 289.490486 115.700043 
L 300.969046 116.763337 
L 313.330572 117.686527 
L 327.016547 118.48581 
L 342.468454 119.161047 
L 348.649217 119.288794 
L 361.89371 117.227015 
L 369.398922 116.310285 
L 377.345617 115.575084 
L 385.733796 115.023208 
L 395.00494 114.634503 
L 405.600534 114.41793 
L 417.96206 114.399361 
L 432.531001 114.606895 
L 451.956257 115.121327 
L 487.716385 116.341308 
L 529.215794 117.680311 
L 561.885542 118.503912 
L 595.438255 119.12168 
L 613.097578 119.365039 
L 613.097578 119.365039 
" clip-path="url(#p4fc2c55228)" style="fill: none; stroke: #206583; stroke-width: 1.5; stroke-linecap: square"/>
   </g>
   <g id="line2d_26">
    <path d="M 83.317891 16.01439 
L 92.147552 12.655783 
L 94.796451 14.24817 
L 97.445349 16.120779 
L 100.094247 18.27037 
L 101.418697 19.557704 
L 107.59946 26.519435 
L 110.248358 29.270294 
L 113.780223 32.170725 
L 117.312087 35.343509 
L 120.402469 38.395412 
L 127.024715 44.923362 
L 128.349164 46.069812 
L 134.97141 51.320379 
L 137.178826 53.131522 
L 143.801072 58.940783 
L 145.567004 60.352294 
L 154.396665 66.114258 
L 161.460395 71.626302 
L 163.226327 72.866969 
L 172.055988 77.707616 
L 179.119717 82.617546 
L 180.88565 83.705953 
L 187.507896 86.529564 
L 189.715311 87.526102 
L 197.220523 92.193385 
L 198.544973 92.868497 
L 205.608702 95.033385 
L 206.933151 95.413066 
L 214.879846 99.887444 
L 215.762812 100.368227 
L 224.592474 102.442212 
L 232.539169 106.507244 
L 233.422135 106.944042 
L 242.251797 108.644564 
L 250.639975 112.547724 
L 251.081458 112.746109 
L 260.352603 114.136937 
L 266.533366 116.033387 
L 269.182264 116.707331 
L 290.814935 119.062628 
L 308.474258 120.40909 
L 321.71875 121.110677 
L 336.729174 121.52465 
L 348.207734 121.771448 
L 359.244811 119.624414 
L 366.30854 118.588813 
L 373.813753 117.713867 
L 381.760448 117.008433 
L 391.031592 116.427605 
L 394.121974 116.377112 
L 404.276085 116.408744 
L 417.96206 116.068205 
L 420.169475 116.12254 
L 429.44062 116.51943 
L 445.775493 116.436562 
L 455.929604 116.95761 
L 472.705961 117.017309 
L 482.418589 117.481561 
L 500.077911 117.620956 
L 509.349056 117.978664 
L 527.449862 118.147741 
L 536.279523 118.409207 
L 554.821812 118.582269 
L 563.651474 118.767652 
L 582.193763 118.930724 
L 591.023424 119.058197 
L 610.007197 119.215292 
L 613.097578 119.279804 
L 613.097578 119.279804 
" clip-path="url(#p4fc2c55228)" style="fill: none; stroke: #d16c38; stroke-width: 1.5; stroke-linecap: square"/>
   </g>
   <g id="line2d_27">
    <path d="M 83.317891 16.01439 
L 92.147552 12.655783 
L 98.328315 19.932204 
L 104.509078 26.87686 
L 110.689841 33.504877 
L 116.870604 39.828175 
L 124.375816 47.063595 
L 130.556579 52.752356 
L 137.178826 58.58011 
L 143.801072 64.123641 
L 150.864801 69.739069 
L 157.92853 75.062854 
L 164.992259 80.110142 
L 172.055988 84.895295 
L 177.795268 88.561416 
L 182.210099 91.105837 
L 186.62493 93.391264 
L 191.03976 95.43459 
L 195.896074 97.43596 
L 201.193871 99.367178 
L 206.933151 101.210268 
L 213.113914 102.955048 
L 219.73616 104.596836 
L 227.241372 106.22425 
L 235.629551 107.803875 
L 244.900695 109.311075 
L 255.054806 110.728123 
L 266.091883 112.042566 
L 269.182264 112.306548 
L 277.570443 111.962737 
L 285.075655 112.833146 
L 286.841587 113.004802 
L 295.671249 113.039967 
L 304.942393 114.116583 
L 315.096504 114.083632 
L 321.71875 113.881615 
L 331.872861 115.169429 
L 348.649217 115.693221 
L 358.361845 114.308288 
L 364.984091 113.574758 
L 371.606337 113.071841 
L 375.138202 112.942454 
L 385.733796 113.608967 
L 392.797525 113.525024 
L 402.510152 114.383373 
L 410.456848 114.401733 
L 420.169475 115.255422 
L 428.557654 115.370826 
L 437.828798 116.10649 
L 446.65846 116.27182 
L 455.488121 116.872149 
L 464.759266 117.056602 
L 473.588927 117.533144 
L 498.311979 117.858113 
L 522.593548 118.479084 
L 569.390754 119.69507 
L 593.23084 120.073325 
L 613.097578 120.257545 
L 613.097578 120.257545 
" clip-path="url(#p4fc2c55228)" style="fill: none; stroke: #369581; stroke-width: 1.5; stroke-linecap: square"/>
   </g>
   <g id="line2d_28">
    <path d="M 56.828906 120.168523 
L 639.586562 120.168523 
" clip-path="url(#p4fc2c55228)" style="fill: none; stroke-dasharray: 3.7,1.6; stroke-dashoffset: 0; stroke: #62727e"/>
   </g>
   <g id="patch_3">
    <path d="M 56.828906 127.227231 
L 56.828906 7.2 
" style="fill: none; stroke: #000000; stroke-width: 0.8; stroke-linejoin: miter; stroke-linecap: square"/>
   </g>
   <g id="patch_4">
    <path d="M 56.828906 127.227231 
L 639.586562 127.227231 
" style="fill: none; stroke: #000000; stroke-width: 0.8; stroke-linejoin: miter; stroke-linecap: square"/>
   </g>
   <g id="legend_1">
    <g id="line2d_29">
     <path d="M 411.750156 18.988594 
L 420.750156 18.988594 
L 429.750156 18.988594 
" style="fill: none; stroke: #206583; stroke-width: 1.5; stroke-linecap: square"/>
    </g>
    <g id="text_7">
     <text style="font-size: 9px; font-family: 'DejaVu Sans'; text-anchor: start" x="436.950156" y="22.138594" transform="rotate(-0 436.950156 22.138594)">SIMC</text>
    </g>
    <g id="line2d_30">
     <path d="M 411.750156 32.489297 
L 420.750156 32.489297 
L 429.750156 32.489297 
" style="fill: none; stroke: #d16c38; stroke-width: 1.5; stroke-linecap: square"/>
    </g>
    <g id="text_8">
     <text style="font-size: 9px; font-family: 'DejaVu Sans'; text-anchor: start" x="436.950156" y="35.639297" transform="rotate(-0 436.950156 35.639297)">Q-Learning</text>
    </g>
    <g id="line2d_31">
     <path d="M 504.60625 18.988594 
L 513.60625 18.988594 
L 522.60625 18.988594 
" style="fill: none; stroke: #369581; stroke-width: 1.5; stroke-linecap: square"/>
    </g>
    <g id="text_9">
     <text style="font-size: 9px; font-family: 'DejaVu Sans'; text-anchor: start" x="529.80625" y="22.138594" transform="rotate(-0 529.80625 22.138594)">DQN</text>
    </g>
    <g id="line2d_32">
     <path d="M 568.554062 18.988594 
L 577.554062 18.988594 
L 586.554062 18.988594 
" style="fill: none; stroke-dasharray: 3.7,1.6; stroke-dashoffset: 0; stroke: #62727e"/>
    </g>
    <g id="text_10">
     <text style="font-size: 9px; font-family: 'DejaVu Sans'; text-anchor: start" x="593.754062" y="22.138594" transform="rotate(-0 593.754062 22.138594)">Setpoint</text>
    </g>
   </g>
  </g>
  <g id="axes_2">
   <g id="patch_5">
    <path d="M 56.828906 261.577373 
L 639.586562 261.577373 
L 639.586562 141.550142 
L 56.828906 141.550142 
z
" style="fill: #ffffff"/>
   </g>
   <g id="matplotlib.axis_3">
    <g id="xtick_8">
     <g id="line2d_33">
      <path d="M 83.317891 261.577373 
L 83.317891 141.550142 
" clip-path="url(#pf47cecdec2)" style="fill: none; stroke: #b0b0b0; stroke-opacity: 0.15; stroke-width: 0.8; stroke-linecap: square"/>
     </g>
     <g id="line2d_34">
      <g>
       <use xlink:href="#m66b865cbd8" x="83.317891" y="261.577373" style="stroke: #000000; stroke-width: 0.8"/>
      </g>
     </g>
    </g>
    <g id="xtick_9">
     <g id="line2d_35">
      <path d="M 171.614505 261.577373 
L 171.614505 141.550142 
" clip-path="url(#pf47cecdec2)" style="fill: none; stroke: #b0b0b0; stroke-opacity: 0.15; stroke-width: 0.8; stroke-linecap: square"/>
     </g>
     <g id="line2d_36">
      <g>
       <use xlink:href="#m66b865cbd8" x="171.614505" y="261.577373" style="stroke: #000000; stroke-width: 0.8"/>
      </g>
     </g>
    </g>
    <g id="xtick_10">
     <g id="line2d_37">
      <path d="M 259.91112 261.577373 
L 259.91112 141.550142 
" clip-path="url(#pf47cecdec2)" style="fill: none; stroke: #b0b0b0; stroke-opacity: 0.15; stroke-width: 0.8; stroke-linecap: square"/>
     </g>
     <g id="line2d_38">
      <g>
       <use xlink:href="#m66b865cbd8" x="259.91112" y="261.577373" style="stroke: #000000; stroke-width: 0.8"/>
      </g>
     </g>
    </g>
    <g id="xtick_11">
     <g id="line2d_39">
      <path d="M 348.207734 261.577373 
L 348.207734 141.550142 
" clip-path="url(#pf47cecdec2)" style="fill: none; stroke: #b0b0b0; stroke-opacity: 0.15; stroke-width: 0.8; stroke-linecap: square"/>
     </g>
     <g id="line2d_40">
      <g>
       <use xlink:href="#m66b865cbd8" x="348.207734" y="261.577373" style="stroke: #000000; stroke-width: 0.8"/>
      </g>
     </g>
    </g>
    <g id="xtick_12">
     <g id="line2d_41">
      <path d="M 436.504349 261.577373 
L 436.504349 141.550142 
" clip-path="url(#pf47cecdec2)" style="fill: none; stroke: #b0b0b0; stroke-opacity: 0.15; stroke-width: 0.8; stroke-linecap: square"/>
     </g>
     <g id="line2d_42">
      <g>
       <use xlink:href="#m66b865cbd8" x="436.504349" y="261.577373" style="stroke: #000000; stroke-width: 0.8"/>
      </g>
     </g>
    </g>
    <g id="xtick_13">
     <g id="line2d_43">
      <path d="M 524.800964 261.577373 
L 524.800964 141.550142 
" clip-path="url(#pf47cecdec2)" style="fill: none; stroke: #b0b0b0; stroke-opacity: 0.15; stroke-width: 0.8; stroke-linecap: square"/>
     </g>
     <g id="line2d_44">
      <g>
       <use xlink:href="#m66b865cbd8" x="524.800964" y="261.577373" style="stroke: #000000; stroke-width: 0.8"/>
      </g>
     </g>
    </g>
    <g id="xtick_14">
     <g id="line2d_45">
      <path d="M 613.097578 261.577373 
L 613.097578 141.550142 
" clip-path="url(#pf47cecdec2)" style="fill: none; stroke: #b0b0b0; stroke-opacity: 0.15; stroke-width: 0.8; stroke-linecap: square"/>
     </g>
     <g id="line2d_46">
      <g>
       <use xlink:href="#m66b865cbd8" x="613.097578" y="261.577373" style="stroke: #000000; stroke-width: 0.8"/>
      </g>
     </g>
    </g>
   </g>
   <g id="matplotlib.axis_4">
    <g id="ytick_6">
     <g id="line2d_47">
      <path d="M 56.828906 258.243283 
L 639.586562 258.243283 
" clip-path="url(#pf47cecdec2)" style="fill: none; stroke: #b0b0b0; stroke-opacity: 0.15; stroke-width: 0.8; stroke-linecap: square"/>
     </g>
     <g id="line2d_48">
      <g>
       <use xlink:href="#m9f419aeb48" x="56.828906" y="258.243283" style="stroke: #000000; stroke-width: 0.8"/>
      </g>
     </g>
     <g id="text_11">
      <text style="font-size: 10px; font-family: 'DejaVu Sans'; text-anchor: end" x="49.828906" y="262.042111" transform="rotate(-0 49.828906 262.042111)">0.0</text>
     </g>
    </g>
    <g id="ytick_7">
     <g id="line2d_49">
      <path d="M 56.828906 236.016018 
L 639.586562 236.016018 
" clip-path="url(#pf47cecdec2)" style="fill: none; stroke: #b0b0b0; stroke-opacity: 0.15; stroke-width: 0.8; stroke-linecap: square"/>
     </g>
     <g id="line2d_50">
      <g>
       <use xlink:href="#m9f419aeb48" x="56.828906" y="236.016018" style="stroke: #000000; stroke-width: 0.8"/>
      </g>
     </g>
     <g id="text_12">
      <text style="font-size: 10px; font-family: 'DejaVu Sans'; text-anchor: end" x="49.828906" y="239.814846" transform="rotate(-0 49.828906 239.814846)">0.2</text>
     </g>
    </g>
    <g id="ytick_8">
     <g id="line2d_51">
      <path d="M 56.828906 213.788753 
L 639.586562 213.788753 
" clip-path="url(#pf47cecdec2)" style="fill: none; stroke: #b0b0b0; stroke-opacity: 0.15; stroke-width: 0.8; stroke-linecap: square"/>
     </g>
     <g id="line2d_52">
      <g>
       <use xlink:href="#m9f419aeb48" x="56.828906" y="213.788753" style="stroke: #000000; stroke-width: 0.8"/>
      </g>
     </g>
     <g id="text_13">
      <text style="font-size: 10px; font-family: 'DejaVu Sans'; text-anchor: end" x="49.828906" y="217.587581" transform="rotate(-0 49.828906 217.587581)">0.4</text>
     </g>
    </g>
    <g id="ytick_9">
     <g id="line2d_53">
      <path d="M 56.828906 191.561488 
L 639.586562 191.561488 
" clip-path="url(#pf47cecdec2)" style="fill: none; stroke: #b0b0b0; stroke-opacity: 0.15; stroke-width: 0.8; stroke-linecap: square"/>
     </g>
     <g id="line2d_54">
      <g>
       <use xlink:href="#m9f419aeb48" x="56.828906" y="191.561488" style="stroke: #000000; stroke-width: 0.8"/>
      </g>
     </g>
     <g id="text_14">
      <text style="font-size: 10px; font-family: 'DejaVu Sans'; text-anchor: end" x="49.828906" y="195.360316" transform="rotate(-0 49.828906 195.360316)">0.6</text>
     </g>
    </g>
    <g id="ytick_10">
     <g id="line2d_55">
      <path d="M 56.828906 169.334223 
L 639.586562 169.334223 
" clip-path="url(#pf47cecdec2)" style="fill: none; stroke: #b0b0b0; stroke-opacity: 0.15; stroke-width: 0.8; stroke-linecap: square"/>
     </g>
     <g id="line2d_56">
      <g>
       <use xlink:href="#m9f419aeb48" x="56.828906" y="169.334223" style="stroke: #000000; stroke-width: 0.8"/>
      </g>
     </g>
     <g id="text_15">
      <text style="font-size: 10px; font-family: 'DejaVu Sans'; text-anchor: end" x="49.828906" y="173.133051" transform="rotate(-0 49.828906 173.133051)">0.8</text>
     </g>
    </g>
    <g id="ytick_11">
     <g id="line2d_57">
      <path d="M 56.828906 147.106958 
L 639.586562 147.106958 
" clip-path="url(#pf47cecdec2)" style="fill: none; stroke: #b0b0b0; stroke-opacity: 0.15; stroke-width: 0.8; stroke-linecap: square"/>
     </g>
     <g id="line2d_58">
      <g>
       <use xlink:href="#m9f419aeb48" x="56.828906" y="147.106958" style="stroke: #000000; stroke-width: 0.8"/>
      </g>
     </g>
     <g id="text_16">
      <text style="font-size: 10px; font-family: 'DejaVu Sans'; text-anchor: end" x="49.828906" y="150.905786" transform="rotate(-0 49.828906 150.905786)">1.0</text>
     </g>
    </g>
    <g id="text_17">
     <text style="font-size: 10px; font-family: 'DejaVu Sans'; text-anchor: middle" x="27.523438" y="201.563757" transform="rotate(-90 27.523438 201.563757)">Cooling command</text>
    </g>
   </g>
   <g id="line2d_59">
    <path d="M 83.317891 147.106958 
L 107.157977 147.106958 
L 107.59946 147.510695 
L 114.221706 148.077025 
L 123.49285 149.13158 
L 133.646961 150.527511 
L 146.44997 152.528494 
L 172.938954 156.965328 
L 193.247176 160.241093 
L 209.140566 162.584486 
L 224.150991 164.575966 
L 238.719932 166.289724 
L 253.730357 167.830714 
L 269.182264 169.189964 
L 285.075655 170.366574 
L 302.293495 171.414734 
L 320.835784 172.3153 
L 341.144005 173.07451 
L 348.207734 173.291291 
L 371.164854 168.481939 
L 379.553033 167.078737 
L 388.824177 165.76064 
L 398.536805 164.608443 
L 409.132398 163.580485 
L 420.610958 162.69442 
L 433.413967 161.936398 
L 447.541426 161.326046 
L 463.876299 160.848456 
L 483.301555 160.512838 
L 507.583124 160.329645 
L 541.135837 160.318825 
L 610.007197 160.578505 
L 612.656095 160.589333 
L 612.656095 160.589333 
" clip-path="url(#pf47cecdec2)" style="fill: none; stroke: #206583; stroke-width: 1.5; stroke-linecap: square"/>
   </g>
   <g id="line2d_60">
    <path d="M 83.317891 192.84383 
L 91.706069 166.114494 
L 92.147552 147.106958 
L 100.53573 147.106958 
L 100.977214 168.704337 
L 105.392044 159.687989 
L 109.365392 152.006204 
L 109.806875 147.106958 
L 118.195053 147.106958 
L 118.636536 156.765635 
L 127.024715 157.261706 
L 127.466198 147.106958 
L 135.854376 147.106958 
L 136.295859 161.406576 
L 141.593656 159.479263 
L 144.684038 158.460134 
L 145.125521 147.106958 
L 153.513699 147.106958 
L 153.955182 161.859575 
L 159.694462 160.481204 
L 162.343361 159.924972 
L 162.784844 147.106958 
L 171.173022 147.106958 
L 171.614505 162.931071 
L 180.002684 164.193853 
L 180.444167 147.106958 
L 188.832345 147.106958 
L 189.273828 166.573465 
L 197.662007 168.021403 
L 198.10349 147.106958 
L 206.491668 147.106958 
L 206.933151 169.534651 
L 211.347982 168.2088 
L 215.321329 167.232658 
L 215.762812 147.106958 
L 224.150991 147.106958 
L 224.592474 168.438892 
L 229.007305 167.820924 
L 232.980652 167.462013 
L 233.422135 147.106958 
L 241.810314 147.151455 
L 242.251797 168.501191 
L 246.666628 168.507843 
L 250.639975 168.693562 
L 251.081458 155.062317 
L 259.469637 157.191509 
L 259.91112 168.667223 
L 266.533366 168.98791 
L 268.299298 169.108131 
L 268.740781 167.000123 
L 277.12896 167.767311 
L 277.570443 169.388358 
L 285.958621 169.900223 
L 286.400104 169.00739 
L 294.788283 169.733889 
L 295.229766 170.238353 
L 309.357224 171.048311 
L 312.447605 171.279278 
L 312.889089 171.926778 
L 321.277267 173.011106 
L 321.71875 171.910641 
L 331.872861 172.511141 
L 338.93659 172.819616 
L 339.378073 174.588813 
L 347.766251 175.102428 
L 348.207734 173.16739 
L 354.82998 171.682575 
L 360.56926 170.404156 
L 375.138202 167.5537 
L 383.084897 166.566649 
L 383.52638 162.471323 
L 390.148626 161.307691 
L 391.914559 161.034072 
L 392.356042 165.621639 
L 400.302737 164.95744 
L 409.573882 164.37898 
L 410.015365 159.516389 
L 418.403543 158.838208 
L 418.845026 163.836073 
L 427.233204 163.498312 
L 428.557654 163.482669 
L 436.062866 163.201007 
L 436.504349 158.61264 
L 444.892527 158.28578 
L 445.33401 162.864976 
L 457.695536 162.633512 
L 462.55185 162.522751 
L 462.993333 158.555188 
L 471.381512 158.393146 
L 471.822995 162.300079 
L 489.040835 162.103161 
L 489.482318 158.811866 
L 497.870496 158.728135 
L 498.311979 161.946982 
L 515.529819 161.825245 
L 515.971302 159.153568 
L 524.35948 159.107811 
L 524.800964 161.710972 
L 542.018803 161.630388 
L 542.460286 159.487365 
L 550.848465 159.460607 
L 551.289948 161.544325 
L 568.507788 161.487851 
L 568.949271 159.780378 
L 577.337449 159.763564 
L 577.778932 161.421818 
L 594.996772 161.380521 
L 595.438255 160.025286 
L 603.826434 160.013997 
L 604.267917 161.329267 
L 612.656095 161.31974 
L 612.656095 161.31974 
" clip-path="url(#pf47cecdec2)" style="fill: none; stroke: #d16c38; stroke-width: 1.5; stroke-linecap: square"/>
   </g>
   <g id="line2d_61">
    <path d="M 83.317891 147.106958 
L 107.157977 147.106958 
L 107.59946 147.510695 
L 108.040943 148.092557 
L 108.482426 147.576774 
L 108.923909 148.15477 
L 109.806875 147.142405 
L 110.248358 147.71465 
L 110.689841 147.21799 
L 111.131324 147.786432 
L 111.572807 147.297333 
L 112.01429 147.861999 
L 112.455773 147.380409 
L 112.897257 147.941323 
L 113.33874 147.467194 
L 113.780223 148.02438 
L 114.221706 147.557662 
L 114.663189 148.111146 
L 115.546155 147.196095 
L 115.987638 147.744072 
L 116.429121 147.295665 
L 116.870604 147.836901 
L 117.312087 147.388069 
L 117.75357 147.925215 
L 118.636536 147.106958 
L 165.875225 147.177065 
L 172.497471 151.326474 
L 179.561201 155.80229 
L 183.534548 157.990843 
L 187.507896 159.899256 
L 191.481243 161.545045 
L 195.454591 162.958945 
L 199.869422 164.297575 
L 204.725736 165.534971 
L 210.023533 166.657137 
L 216.204296 167.729423 
L 223.268025 168.715546 
L 231.21472 169.598184 
L 240.927348 170.442916 
L 252.405908 171.211092 
L 259.469637 171.595153 
L 259.91112 182.495894 
L 268.299298 181.715526 
L 268.740781 172.02326 
L 277.12896 169.282361 
L 277.570443 179.246566 
L 282.86824 178.809852 
L 285.958621 178.657779 
L 286.400104 169.870513 
L 294.788283 168.972207 
L 295.229766 177.729419 
L 302.293495 177.513729 
L 303.617944 177.496689 
L 304.059427 181.221275 
L 312.447605 179.848896 
L 312.889089 168.747629 
L 319.069852 167.660849 
L 321.277267 167.326883 
L 321.71875 174.965185 
L 327.899513 175.014662 
L 331.431378 175.016955 
L 347.324768 173.626585 
L 348.649217 173.423502 
L 365.425574 168.112258 
L 365.867057 159.805615 
L 370.281888 158.545818 
L 374.255236 157.599402 
L 374.696719 166.395711 
L 380.435999 165.843985 
L 383.084897 165.657686 
L 383.52638 157.664259 
L 391.473076 156.514773 
L 391.914559 156.456345 
L 392.356042 164.589662 
L 399.419771 164.234222 
L 400.74422 164.192056 
L 401.185703 157.103619 
L 409.573882 156.342596 
L 410.015365 163.423396 
L 417.96206 163.216672 
L 418.403543 163.211563 
L 418.845026 157.18343 
L 427.233204 156.701196 
L 427.674687 162.652674 
L 436.062866 162.548057 
L 436.504349 157.55954 
L 444.892527 157.252937 
L 445.33401 162.138691 
L 453.722189 162.094461 
L 454.163672 158.043582 
L 462.55185 157.847884 
L 462.993333 161.792654 
L 474.913376 161.590052 
L 493.014182 160.571868 
L 506.258674 160.082534 
L 520.827616 159.776595 
L 537.16249 159.663048 
L 557.470711 159.757095 
L 567.183339 159.954707 
L 580.869314 160.155486 
L 605.150883 160.472249 
L 612.656095 160.557599 
L 612.656095 160.557599 
" clip-path="url(#pf47cecdec2)" style="fill: none; stroke: #369581; stroke-width: 1.5; stroke-linecap: square"/>
   </g>
   <g id="patch_6">
    <path d="M 56.828906 261.577373 
L 56.828906 141.550142 
" style="fill: none; stroke: #000000; stroke-width: 0.8; stroke-linejoin: miter; stroke-linecap: square"/>
   </g>
   <g id="patch_7">
    <path d="M 56.828906 261.577373 
L 639.586562 261.577373 
" style="fill: none; stroke: #000000; stroke-width: 0.8; stroke-linejoin: miter; stroke-linecap: square"/>
   </g>
  </g>
  <g id="axes_3">
   <g id="patch_8">
    <path d="M 56.828906 395.927514 
L 639.586562 395.927514 
L 639.586562 275.900284 
L 56.828906 275.900284 
z
" style="fill: #ffffff"/>
   </g>
   <g id="matplotlib.axis_5">
    <g id="xtick_15">
     <g id="line2d_62">
      <path d="M 83.317891 395.927514 
L 83.317891 275.900284 
" clip-path="url(#pbcd54b754b)" style="fill: none; stroke: #b0b0b0; stroke-opacity: 0.15; stroke-width: 0.8; stroke-linecap: square"/>
     </g>
     <g id="line2d_63">
      <g>
       <use xlink:href="#m66b865cbd8" x="83.317891" y="395.927514" style="stroke: #000000; stroke-width: 0.8"/>
      </g>
     </g>
    </g>
    <g id="xtick_16">
     <g id="line2d_64">
      <path d="M 171.614505 395.927514 
L 171.614505 275.900284 
" clip-path="url(#pbcd54b754b)" style="fill: none; stroke: #b0b0b0; stroke-opacity: 0.15; stroke-width: 0.8; stroke-linecap: square"/>
     </g>
     <g id="line2d_65">
      <g>
       <use xlink:href="#m66b865cbd8" x="171.614505" y="395.927514" style="stroke: #000000; stroke-width: 0.8"/>
      </g>
     </g>
    </g>
    <g id="xtick_17">
     <g id="line2d_66">
      <path d="M 259.91112 395.927514 
L 259.91112 275.900284 
" clip-path="url(#pbcd54b754b)" style="fill: none; stroke: #b0b0b0; stroke-opacity: 0.15; stroke-width: 0.8; stroke-linecap: square"/>
     </g>
     <g id="line2d_67">
      <g>
       <use xlink:href="#m66b865cbd8" x="259.91112" y="395.927514" style="stroke: #000000; stroke-width: 0.8"/>
      </g>
     </g>
    </g>
    <g id="xtick_18">
     <g id="line2d_68">
      <path d="M 348.207734 395.927514 
L 348.207734 275.900284 
" clip-path="url(#pbcd54b754b)" style="fill: none; stroke: #b0b0b0; stroke-opacity: 0.15; stroke-width: 0.8; stroke-linecap: square"/>
     </g>
     <g id="line2d_69">
      <g>
       <use xlink:href="#m66b865cbd8" x="348.207734" y="395.927514" style="stroke: #000000; stroke-width: 0.8"/>
      </g>
     </g>
    </g>
    <g id="xtick_19">
     <g id="line2d_70">
      <path d="M 436.504349 395.927514 
L 436.504349 275.900284 
" clip-path="url(#pbcd54b754b)" style="fill: none; stroke: #b0b0b0; stroke-opacity: 0.15; stroke-width: 0.8; stroke-linecap: square"/>
     </g>
     <g id="line2d_71">
      <g>
       <use xlink:href="#m66b865cbd8" x="436.504349" y="395.927514" style="stroke: #000000; stroke-width: 0.8"/>
      </g>
     </g>
    </g>
    <g id="xtick_20">
     <g id="line2d_72">
      <path d="M 524.800964 395.927514 
L 524.800964 275.900284 
" clip-path="url(#pbcd54b754b)" style="fill: none; stroke: #b0b0b0; stroke-opacity: 0.15; stroke-width: 0.8; stroke-linecap: square"/>
     </g>
     <g id="line2d_73">
      <g>
       <use xlink:href="#m66b865cbd8" x="524.800964" y="395.927514" style="stroke: #000000; stroke-width: 0.8"/>
      </g>
     </g>
    </g>
    <g id="xtick_21">
     <g id="line2d_74">
      <path d="M 613.097578 395.927514 
L 613.097578 275.900284 
" clip-path="url(#pbcd54b754b)" style="fill: none; stroke: #b0b0b0; stroke-opacity: 0.15; stroke-width: 0.8; stroke-linecap: square"/>
     </g>
     <g id="line2d_75">
      <g>
       <use xlink:href="#m66b865cbd8" x="613.097578" y="395.927514" style="stroke: #000000; stroke-width: 0.8"/>
      </g>
     </g>
    </g>
   </g>
   <g id="matplotlib.axis_6">
    <g id="ytick_12">
     <g id="line2d_76">
      <path d="M 56.828906 376.407934 
L 639.586562 376.407934 
" clip-path="url(#pbcd54b754b)" style="fill: none; stroke: #b0b0b0; stroke-opacity: 0.15; stroke-width: 0.8; stroke-linecap: square"/>
     </g>
     <g id="line2d_77">
      <g>
       <use xlink:href="#m9f419aeb48" x="56.828906" y="376.407934" style="stroke: #000000; stroke-width: 0.8"/>
      </g>
     </g>
     <g id="text_18">
      <text style="font-size: 10px; font-family: 'DejaVu Sans'; text-anchor: end" x="49.828906" y="380.206763" transform="rotate(-0 49.828906 380.206763)">0.2</text>
     </g>
    </g>
    <g id="ytick_13">
     <g id="line2d_78">
      <path d="M 56.828906 351.190092 
L 639.586562 351.190092 
" clip-path="url(#pbcd54b754b)" style="fill: none; stroke: #b0b0b0; stroke-opacity: 0.15; stroke-width: 0.8; stroke-linecap: square"/>
     </g>
     <g id="line2d_79">
      <g>
       <use xlink:href="#m9f419aeb48" x="56.828906" y="351.190092" style="stroke: #000000; stroke-width: 0.8"/>
      </g>
     </g>
     <g id="text_19">
      <text style="font-size: 10px; font-family: 'DejaVu Sans'; text-anchor: end" x="49.828906" y="354.98892" transform="rotate(-0 49.828906 354.98892)">0.3</text>
     </g>
    </g>
    <g id="ytick_14">
     <g id="line2d_80">
      <path d="M 56.828906 325.97225 
L 639.586562 325.97225 
" clip-path="url(#pbcd54b754b)" style="fill: none; stroke: #b0b0b0; stroke-opacity: 0.15; stroke-width: 0.8; stroke-linecap: square"/>
     </g>
     <g id="line2d_81">
      <g>
       <use xlink:href="#m9f419aeb48" x="56.828906" y="325.97225" style="stroke: #000000; stroke-width: 0.8"/>
      </g>
     </g>
     <g id="text_20">
      <text style="font-size: 10px; font-family: 'DejaVu Sans'; text-anchor: end" x="49.828906" y="329.771078" transform="rotate(-0 49.828906 329.771078)">0.4</text>
     </g>
    </g>
    <g id="ytick_15">
     <g id="line2d_82">
      <path d="M 56.828906 300.754407 
L 639.586562 300.754407 
" clip-path="url(#pbcd54b754b)" style="fill: none; stroke: #b0b0b0; stroke-opacity: 0.15; stroke-width: 0.8; stroke-linecap: square"/>
     </g>
     <g id="line2d_83">
      <g>
       <use xlink:href="#m9f419aeb48" x="56.828906" y="300.754407" style="stroke: #000000; stroke-width: 0.8"/>
      </g>
     </g>
     <g id="text_21">
      <text style="font-size: 10px; font-family: 'DejaVu Sans'; text-anchor: end" x="49.828906" y="304.553235" transform="rotate(-0 49.828906 304.553235)">0.5</text>
     </g>
    </g>
    <g id="text_22">
     <text style="font-size: 10px; font-family: 'DejaVu Sans'; text-anchor: middle" x="27.523438" y="335.913899" transform="rotate(-90 27.523438 335.913899)">Kp</text>
    </g>
   </g>
   <g id="line2d_84">
    <path d="M 83.317891 354.099843 
L 612.656095 354.099843 
L 612.656095 354.099843 
" clip-path="url(#pbcd54b754b)" style="fill: none; stroke: #206583; stroke-width: 1.5; stroke-linecap: square"/>
   </g>
   <g id="line2d_85">
    <path d="M 83.317891 390.471731 
L 91.706069 390.471731 
L 92.147552 354.099843 
L 100.53573 354.099843 
L 100.977214 390.471731 
L 109.365392 390.471731 
L 109.806875 281.356067 
L 118.195053 281.356067 
L 118.636536 390.471731 
L 127.024715 390.471731 
L 127.466198 281.356067 
L 135.854376 281.356067 
L 136.295859 390.471731 
L 144.684038 390.471731 
L 145.125521 281.356067 
L 153.513699 281.356067 
L 153.955182 390.471731 
L 162.343361 390.471731 
L 162.784844 281.356067 
L 171.173022 281.356067 
L 171.614505 390.471731 
L 180.002684 390.471731 
L 180.444167 281.356067 
L 188.832345 281.356067 
L 189.273828 390.471731 
L 197.662007 390.471731 
L 198.10349 281.356067 
L 206.491668 281.356067 
L 206.933151 390.471731 
L 215.321329 390.471731 
L 215.762812 281.356067 
L 224.150991 281.356067 
L 224.592474 390.471731 
L 232.980652 390.471731 
L 233.422135 281.356067 
L 241.810314 281.356067 
L 242.251797 390.471731 
L 250.639975 390.471731 
L 251.081458 281.356067 
L 259.469637 281.356067 
L 259.91112 390.471731 
L 268.299298 390.471731 
L 268.740781 354.099843 
L 277.12896 354.099843 
L 277.570443 390.471731 
L 285.958621 390.471731 
L 286.400104 354.099843 
L 294.788283 354.099843 
L 295.229766 390.471731 
L 303.617944 390.471731 
L 304.059427 354.099843 
L 312.447605 354.099843 
L 312.889089 281.356067 
L 321.277267 281.356067 
L 321.71875 354.099843 
L 338.93659 354.099843 
L 339.378073 281.356067 
L 347.766251 281.356067 
L 348.207734 354.099843 
L 383.084897 354.099843 
L 383.52638 281.356067 
L 391.914559 281.356067 
L 392.356042 354.099843 
L 409.573882 354.099843 
L 410.015365 281.356067 
L 418.403543 281.356067 
L 418.845026 354.099843 
L 436.062866 354.099843 
L 436.504349 281.356067 
L 444.892527 281.356067 
L 445.33401 354.099843 
L 462.55185 354.099843 
L 462.993333 281.356067 
L 471.381512 281.356067 
L 471.822995 354.099843 
L 489.040835 354.099843 
L 489.482318 281.356067 
L 497.870496 281.356067 
L 498.311979 354.099843 
L 515.529819 354.099843 
L 515.971302 281.356067 
L 524.35948 281.356067 
L 524.800964 354.099843 
L 542.018803 354.099843 
L 542.460286 281.356067 
L 550.848465 281.356067 
L 551.289948 354.099843 
L 568.507788 354.099843 
L 568.949271 281.356067 
L 577.337449 281.356067 
L 577.778932 354.099843 
L 594.996772 354.099843 
L 595.438255 281.356067 
L 603.826434 281.356067 
L 604.267917 354.099843 
L 612.656095 354.099843 
L 612.656095 354.099843 
" clip-path="url(#pbcd54b754b)" style="fill: none; stroke: #d16c38; stroke-width: 1.5; stroke-linecap: square"/>
   </g>
   <g id="line2d_86">
    <path d="M 83.317891 354.099843 
L 118.195053 354.099843 
L 118.636536 281.356067 
L 259.469637 281.356067 
L 259.91112 354.099843 
L 268.299298 354.099843 
L 268.740781 281.356067 
L 277.12896 281.356067 
L 277.570443 354.099843 
L 285.958621 354.099843 
L 286.400104 281.356067 
L 294.788283 281.356067 
L 295.229766 354.099843 
L 303.617944 354.099843 
L 304.059427 390.471731 
L 312.447605 390.471731 
L 312.889089 281.356067 
L 321.277267 281.356067 
L 321.71875 354.099843 
L 365.425574 354.099843 
L 365.867057 281.356067 
L 374.255236 281.356067 
L 374.696719 354.099843 
L 383.084897 354.099843 
L 383.52638 281.356067 
L 391.914559 281.356067 
L 392.356042 354.099843 
L 400.74422 354.099843 
L 401.185703 281.356067 
L 409.573882 281.356067 
L 410.015365 354.099843 
L 418.403543 354.099843 
L 418.845026 281.356067 
L 427.233204 281.356067 
L 427.674687 354.099843 
L 436.062866 354.099843 
L 436.504349 281.356067 
L 444.892527 281.356067 
L 445.33401 354.099843 
L 453.722189 354.099843 
L 454.163672 281.356067 
L 462.55185 281.356067 
L 462.993333 354.099843 
L 612.656095 354.099843 
L 612.656095 354.099843 
" clip-path="url(#pbcd54b754b)" style="fill: none; stroke: #369581; stroke-width: 1.5; stroke-linecap: square"/>
   </g>
   <g id="patch_9">
    <path d="M 56.828906 395.927514 
L 56.828906 275.900284 
" style="fill: none; stroke: #000000; stroke-width: 0.8; stroke-linejoin: miter; stroke-linecap: square"/>
   </g>
   <g id="patch_10">
    <path d="M 56.828906 395.927514 
L 639.586562 395.927514 
" style="fill: none; stroke: #000000; stroke-width: 0.8; stroke-linejoin: miter; stroke-linecap: square"/>
   </g>
  </g>
  <g id="axes_4">
   <g id="patch_11">
    <path d="M 56.828906 530.277656 
L 639.586562 530.277656 
L 639.586562 410.250425 
L 56.828906 410.250425 
z
" style="fill: #ffffff"/>
   </g>
   <g id="matplotlib.axis_7">
    <g id="xtick_22">
     <g id="line2d_87">
      <path d="M 83.317891 530.277656 
L 83.317891 410.250425 
" clip-path="url(#p8b4fc2ce3b)" style="fill: none; stroke: #b0b0b0; stroke-opacity: 0.15; stroke-width: 0.8; stroke-linecap: square"/>
     </g>
     <g id="line2d_88">
      <g>
       <use xlink:href="#m66b865cbd8" x="83.317891" y="530.277656" style="stroke: #000000; stroke-width: 0.8"/>
      </g>
     </g>
     <g id="text_23">
      <text style="font-size: 10px; font-family: 'DejaVu Sans'; text-anchor: middle" x="83.317891" y="544.875312" transform="rotate(-0 83.317891 544.875312)">0</text>
     </g>
    </g>
    <g id="xtick_23">
     <g id="line2d_89">
      <path d="M 171.614505 530.277656 
L 171.614505 410.250425 
" clip-path="url(#p8b4fc2ce3b)" style="fill: none; stroke: #b0b0b0; stroke-opacity: 0.15; stroke-width: 0.8; stroke-linecap: square"/>
     </g>
     <g id="line2d_90">
      <g>
       <use xlink:href="#m66b865cbd8" x="171.614505" y="530.277656" style="stroke: #000000; stroke-width: 0.8"/>
      </g>
     </g>
     <g id="text_24">
      <text style="font-size: 10px; font-family: 'DejaVu Sans'; text-anchor: middle" x="171.614505" y="544.875312" transform="rotate(-0 171.614505 544.875312)">20</text>
     </g>
    </g>
    <g id="xtick_24">
     <g id="line2d_91">
      <path d="M 259.91112 530.277656 
L 259.91112 410.250425 
" clip-path="url(#p8b4fc2ce3b)" style="fill: none; stroke: #b0b0b0; stroke-opacity: 0.15; stroke-width: 0.8; stroke-linecap: square"/>
     </g>
     <g id="line2d_92">
      <g>
       <use xlink:href="#m66b865cbd8" x="259.91112" y="530.277656" style="stroke: #000000; stroke-width: 0.8"/>
      </g>
     </g>
     <g id="text_25">
      <text style="font-size: 10px; font-family: 'DejaVu Sans'; text-anchor: middle" x="259.91112" y="544.875312" transform="rotate(-0 259.91112 544.875312)">40</text>
     </g>
    </g>
    <g id="xtick_25">
     <g id="line2d_93">
      <path d="M 348.207734 530.277656 
L 348.207734 410.250425 
" clip-path="url(#p8b4fc2ce3b)" style="fill: none; stroke: #b0b0b0; stroke-opacity: 0.15; stroke-width: 0.8; stroke-linecap: square"/>
     </g>
     <g id="line2d_94">
      <g>
       <use xlink:href="#m66b865cbd8" x="348.207734" y="530.277656" style="stroke: #000000; stroke-width: 0.8"/>
      </g>
     </g>
     <g id="text_26">
      <text style="font-size: 10px; font-family: 'DejaVu Sans'; text-anchor: middle" x="348.207734" y="544.875312" transform="rotate(-0 348.207734 544.875312)">60</text>
     </g>
    </g>
    <g id="xtick_26">
     <g id="line2d_95">
      <path d="M 436.504349 530.277656 
L 436.504349 410.250425 
" clip-path="url(#p8b4fc2ce3b)" style="fill: none; stroke: #b0b0b0; stroke-opacity: 0.15; stroke-width: 0.8; stroke-linecap: square"/>
     </g>
     <g id="line2d_96">
      <g>
       <use xlink:href="#m66b865cbd8" x="436.504349" y="530.277656" style="stroke: #000000; stroke-width: 0.8"/>
      </g>
     </g>
     <g id="text_27">
      <text style="font-size: 10px; font-family: 'DejaVu Sans'; text-anchor: middle" x="436.504349" y="544.875312" transform="rotate(-0 436.504349 544.875312)">80</text>
     </g>
    </g>
    <g id="xtick_27">
     <g id="line2d_97">
      <path d="M 524.800964 530.277656 
L 524.800964 410.250425 
" clip-path="url(#p8b4fc2ce3b)" style="fill: none; stroke: #b0b0b0; stroke-opacity: 0.15; stroke-width: 0.8; stroke-linecap: square"/>
     </g>
     <g id="line2d_98">
      <g>
       <use xlink:href="#m66b865cbd8" x="524.800964" y="530.277656" style="stroke: #000000; stroke-width: 0.8"/>
      </g>
     </g>
     <g id="text_28">
      <text style="font-size: 10px; font-family: 'DejaVu Sans'; text-anchor: middle" x="524.800964" y="544.875312" transform="rotate(-0 524.800964 544.875312)">100</text>
     </g>
    </g>
    <g id="xtick_28">
     <g id="line2d_99">
      <path d="M 613.097578 530.277656 
L 613.097578 410.250425 
" clip-path="url(#p8b4fc2ce3b)" style="fill: none; stroke: #b0b0b0; stroke-opacity: 0.15; stroke-width: 0.8; stroke-linecap: square"/>
     </g>
     <g id="line2d_100">
      <g>
       <use xlink:href="#m66b865cbd8" x="613.097578" y="530.277656" style="stroke: #000000; stroke-width: 0.8"/>
      </g>
     </g>
     <g id="text_29">
      <text style="font-size: 10px; font-family: 'DejaVu Sans'; text-anchor: middle" x="613.097578" y="544.875312" transform="rotate(-0 613.097578 544.875312)">120</text>
     </g>
    </g>
    <g id="text_30">
     <text style="font-size: 10px; font-family: 'DejaVu Sans'; text-anchor: middle" x="348.207734" y="558.876094" transform="rotate(-0 348.207734 558.876094)">Time (min)</text>
    </g>
   </g>
   <g id="matplotlib.axis_8">
    <g id="ytick_16">
     <g id="line2d_101">
      <path d="M 56.828906 510.758076 
L 639.586562 510.758076 
" clip-path="url(#p8b4fc2ce3b)" style="fill: none; stroke: #b0b0b0; stroke-opacity: 0.15; stroke-width: 0.8; stroke-linecap: square"/>
     </g>
     <g id="line2d_102">
      <g>
       <use xlink:href="#m9f419aeb48" x="56.828906" y="510.758076" style="stroke: #000000; stroke-width: 0.8"/>
      </g>
     </g>
     <g id="text_31">
      <text style="font-size: 10px; font-family: 'DejaVu Sans'; text-anchor: end" x="49.828906" y="514.556904" transform="rotate(-0 49.828906 514.556904)">0.010</text>
     </g>
    </g>
    <g id="ytick_17">
     <g id="line2d_103">
      <path d="M 56.828906 485.540234 
L 639.586562 485.540234 
" clip-path="url(#p8b4fc2ce3b)" style="fill: none; stroke: #b0b0b0; stroke-opacity: 0.15; stroke-width: 0.8; stroke-linecap: square"/>
     </g>
     <g id="line2d_104">
      <g>
       <use xlink:href="#m9f419aeb48" x="56.828906" y="485.540234" style="stroke: #000000; stroke-width: 0.8"/>
      </g>
     </g>
     <g id="text_32">
      <text style="font-size: 10px; font-family: 'DejaVu Sans'; text-anchor: end" x="49.828906" y="489.339062" transform="rotate(-0 49.828906 489.339062)">0.015</text>
     </g>
    </g>
    <g id="ytick_18">
     <g id="line2d_105">
      <path d="M 56.828906 460.322391 
L 639.586562 460.322391 
" clip-path="url(#p8b4fc2ce3b)" style="fill: none; stroke: #b0b0b0; stroke-opacity: 0.15; stroke-width: 0.8; stroke-linecap: square"/>
     </g>
     <g id="line2d_106">
      <g>
       <use xlink:href="#m9f419aeb48" x="56.828906" y="460.322391" style="stroke: #000000; stroke-width: 0.8"/>
      </g>
     </g>
     <g id="text_33">
      <text style="font-size: 10px; font-family: 'DejaVu Sans'; text-anchor: end" x="49.828906" y="464.12122" transform="rotate(-0 49.828906 464.12122)">0.020</text>
     </g>
    </g>
    <g id="ytick_19">
     <g id="line2d_107">
      <path d="M 56.828906 435.104549 
L 639.586562 435.104549 
" clip-path="url(#p8b4fc2ce3b)" style="fill: none; stroke: #b0b0b0; stroke-opacity: 0.15; stroke-width: 0.8; stroke-linecap: square"/>
     </g>
     <g id="line2d_108">
      <g>
       <use xlink:href="#m9f419aeb48" x="56.828906" y="435.104549" style="stroke: #000000; stroke-width: 0.8"/>
      </g>
     </g>
     <g id="text_34">
      <text style="font-size: 10px; font-family: 'DejaVu Sans'; text-anchor: end" x="49.828906" y="438.903377" transform="rotate(-0 49.828906 438.903377)">0.025</text>
     </g>
    </g>
    <g id="text_35">
     <text style="font-size: 10px; font-family: 'DejaVu Sans'; text-anchor: middle" x="14.798438" y="470.264041" transform="rotate(-90 14.798438 470.264041)">Ki (/min)</text>
    </g>
   </g>
   <g id="line2d_109">
    <path d="M 83.317891 488.449985 
L 612.656095 488.449985 
L 612.656095 488.449985 
" clip-path="url(#p8b4fc2ce3b)" style="fill: none; stroke: #206583; stroke-width: 1.5; stroke-linecap: square"/>
   </g>
   <g id="line2d_110">
    <path d="M 83.317891 415.706209 
L 91.706069 415.706209 
L 92.147552 524.821873 
L 100.53573 524.821873 
L 100.977214 415.706209 
L 109.365392 415.706209 
L 109.806875 524.821873 
L 127.024715 524.821873 
L 127.466198 488.449985 
L 171.173022 488.449985 
L 171.614505 524.821873 
L 180.002684 524.821873 
L 180.444167 488.449985 
L 188.832345 488.449985 
L 189.273828 524.821873 
L 197.662007 524.821873 
L 198.10349 488.449985 
L 206.491668 488.449985 
L 206.933151 415.706209 
L 215.321329 415.706209 
L 215.762812 488.449985 
L 224.150991 488.449985 
L 224.592474 415.706209 
L 232.980652 415.706209 
L 233.422135 488.449985 
L 241.810314 488.449985 
L 242.251797 415.706209 
L 250.639975 415.706209 
L 251.081458 488.449985 
L 259.469637 488.449985 
L 259.91112 415.706209 
L 268.299298 415.706209 
L 268.740781 488.449985 
L 277.12896 488.449985 
L 277.570443 524.821873 
L 285.958621 524.821873 
L 286.400104 488.449985 
L 294.788283 488.449985 
L 295.229766 524.821873 
L 321.277267 524.821873 
L 321.71875 415.706209 
L 330.106928 415.706209 
L 330.548411 524.821873 
L 347.766251 524.821873 
L 348.207734 415.706209 
L 356.595913 415.706209 
L 357.037396 488.449985 
L 365.425574 488.449985 
L 365.867057 415.706209 
L 374.255236 415.706209 
L 374.696719 524.821873 
L 391.914559 524.821873 
L 392.356042 415.706209 
L 400.74422 415.706209 
L 401.185703 524.821873 
L 418.403543 524.821873 
L 418.845026 415.706209 
L 427.233204 415.706209 
L 427.674687 524.821873 
L 444.892527 524.821873 
L 445.33401 415.706209 
L 453.722189 415.706209 
L 454.163672 524.821873 
L 471.381512 524.821873 
L 471.822995 415.706209 
L 480.211173 415.706209 
L 480.652656 524.821873 
L 497.870496 524.821873 
L 498.311979 415.706209 
L 506.700158 415.706209 
L 507.141641 524.821873 
L 524.35948 524.821873 
L 524.800964 415.706209 
L 533.189142 415.706209 
L 533.630625 524.821873 
L 550.848465 524.821873 
L 551.289948 415.706209 
L 559.678126 415.706209 
L 560.119609 524.821873 
L 577.337449 524.821873 
L 577.778932 415.706209 
L 586.167111 415.706209 
L 586.608594 524.821873 
L 603.826434 524.821873 
L 604.267917 415.706209 
L 612.656095 415.706209 
L 612.656095 415.706209 
" clip-path="url(#p8b4fc2ce3b)" style="fill: none; stroke: #d16c38; stroke-width: 1.5; stroke-linecap: square"/>
   </g>
   <g id="line2d_111">
    <path d="M 83.317891 415.706209 
L 285.958621 415.706209 
L 286.400104 488.449985 
L 294.788283 488.449985 
L 295.229766 415.706209 
L 312.447605 415.706209 
L 312.889089 488.449985 
L 321.277267 488.449985 
L 321.71875 415.706209 
L 365.425574 415.706209 
L 365.867057 488.449985 
L 374.255236 488.449985 
L 374.696719 415.706209 
L 383.084897 415.706209 
L 383.52638 488.449985 
L 391.914559 488.449985 
L 392.356042 415.706209 
L 400.74422 415.706209 
L 401.185703 488.449985 
L 409.573882 488.449985 
L 410.015365 415.706209 
L 418.403543 415.706209 
L 418.845026 488.449985 
L 427.233204 488.449985 
L 427.674687 415.706209 
L 436.062866 415.706209 
L 436.504349 488.449985 
L 444.892527 488.449985 
L 445.33401 415.706209 
L 453.722189 415.706209 
L 454.163672 488.449985 
L 462.55185 488.449985 
L 462.993333 415.706209 
L 559.678126 415.706209 
L 560.119609 524.821873 
L 568.507788 524.821873 
L 568.949271 415.706209 
L 577.337449 415.706209 
L 577.778932 524.821873 
L 586.167111 524.821873 
L 586.608594 415.706209 
L 612.656095 415.706209 
L 612.656095 415.706209 
" clip-path="url(#p8b4fc2ce3b)" style="fill: none; stroke: #369581; stroke-width: 1.5; stroke-linecap: square"/>
   </g>
   <g id="patch_12">
    <path d="M 56.828906 530.277656 
L 56.828906 410.250425 
" style="fill: none; stroke: #000000; stroke-width: 0.8; stroke-linejoin: miter; stroke-linecap: square"/>
   </g>
   <g id="patch_13">
    <path d="M 56.828906 530.277656 
L 639.586562 530.277656 
" style="fill: none; stroke: #000000; stroke-width: 0.8; stroke-linejoin: miter; stroke-linecap: square"/>
   </g>
  </g>
 </g>
 <defs>
  <clipPath id="p4fc2c55228">
   <rect x="56.828906" y="7.2" width="582.757656" height="120.027231"/>
  </clipPath>
  <clipPath id="pf47cecdec2">
   <rect x="56.828906" y="141.550142" width="582.757656" height="120.027231"/>
  </clipPath>
  <clipPath id="pbcd54b754b">
   <rect x="56.828906" y="275.900284" width="582.757656" height="120.027231"/>
  </clipPath>
  <clipPath id="p8b4fc2ce3b">
   <rect x="56.828906" y="410.250425" width="582.757656" height="120.027231"/>
  </clipPath>
 </defs>
</svg>
