<?xml version="1.0" encoding="utf-8" standalone="no"?>
<!DOCTYPE svg PUBLIC "-//W3C//DTD SVG 1.1//EN"
  "http://www.w3.org/Graphics/SVG/1.1/DTD/svg11.dtd">
<svg xmlns:xlink="http://www.w3.org/1999/xlink" width="712.187187pt" height="266.078438pt" viewBox="0 0 712.187187 266.078438" xmlns="http://www.w3.org/2000/svg" version="1.1">
 <metadata>
  <rdf:RDF xmlns:dc="http://purl.org/dc/elements/1.1/" xmlns:cc="http://creativecommons.org/ns#" xmlns:rdf="http://www.w3.org/1999/02/22-rdf-syntax-ns#">
   <cc:Work>
    <dc:type rdf:resource="http://purl.org/dc/dcmitype/StillImage"/>
    <dc:format>image/svg+xml</dc:format>
    <dc:creator>
     <cc:Agent>
      <dc:title>Matplotlib v3.11.2, https://matplotlib.org/</dc:title>
     </cc:Agent>
    </dc:creator>
   </cc:Work>
  </rdf:RDF>
 </metadata>
 <defs>
  <style type="text/css">*{stroke-linejoin: round; stroke-linecap: butt}</style>
 </defs>
 <g id="figure_1">
  <g id="patch_1">
   <path d="M 0 266.078438 
L 712.187187 266.078438 
L 712.187187 0 
L 0 0 
z
" style="fill: #ffffff"/>
  </g>
  <g id="axes_1">
   <g id="patch_2">
    <path d="M 55.667188 227.877656 
L 356.346016 227.877656 
L 356.346016 22.317187 
L 55.667188 22.317187 
z
" style="fill: #ffffff"/>
   </g>
   <g id="matplotlib.axis_1">
    <g id="xtick_1">
     <g id="line2d_1">
      <defs>
       <path id="m66b865cbd8" d="M 0 0 
L 0 3.5 
" style="stroke: #000000; stroke-width: 0.8"/>
      </defs>
      <g>
       <use xlink:href="#m66b865cbd8" x="68.786623" y="227.877656" style="stroke: #000000; stroke-width: 0.8"/>
      </g>
     </g>
     <g id="text_1">
      <text style="font-size: 10px; font-family: 'DejaVu Sans'; text-anchor: middle" x="68.786623" y="242.475313" transform="rotate(-0 68.786623 242.475313)">0</text>
     </g>
    </g>
    <g id="xtick_2">
     <g id="line2d_2">
      <g>
       <use xlink:href="#m66b865cbd8" x="123.565057" y="227.877656" style="stroke: #000000; stroke-width: 0.8"/>
      </g>
     </g>
     <g id="text_2">
      <text style="font-size: 10px; font-family: 'DejaVu Sans'; text-anchor: middle" x="123.565057" y="242.475313" transform="rotate(-0 123.565057 242.475313)">100</text>
     </g>
    </g>
    <g id="xtick_3">
     <g id="line2d_3">
      <g>
       <use xlink:href="#m66b865cbd8" x="178.343492" y="227.877656" style="stroke: #000000; stroke-width: 0.8"/>
      </g>
     </g>
     <g id="text_3">
      <text style="font-size: 10px; font-family: 'DejaVu Sans'; text-anchor: middle" x="178.343492" y="242.475313" transform="rotate(-0 178.343492 242.475313)">200</text>
     </g>
    </g>
    <g id="xtick_4">
     <g id="line2d_4">
      <g>
       <use xlink:href="#m66b865cbd8" x="233.121927" y="227.877656" style="stroke: #000000; stroke-width: 0.8"/>
      </g>
     </g>
     <g id="text_4">
      <text style="font-size: 10px; font-family: 'DejaVu Sans'; text-anchor: middle" x="233.121927" y="242.475313" transform="rotate(-0 233.121927 242.475313)">300</text>
     </g>
    </g>
    <g id="xtick_5">
     <g id="line2d_5">
      <g>
       <use xlink:href="#m66b865cbd8" x="287.900361" y="227.877656" style="stroke: #000000; stroke-width: 0.8"/>
      </g>
     </g>
     <g id="text_5">
      <text style="font-size: 10px; font-family: 'DejaVu Sans'; text-anchor: middle" x="287.900361" y="242.475313" transform="rotate(-0 287.900361 242.475313)">400</text>
     </g>
    </g>
    <g id="xtick_6">
     <g id="line2d_6">
      <g>
       <use xlink:href="#m66b865cbd8" x="342.678796" y="227.877656" style="stroke: #000000; stroke-width: 0.8"/>
      </g>
     </g>
     <g id="text_6">
      <text style="font-size: 10px; font-family: 'DejaVu Sans'; text-anchor: middle" x="342.678796" y="242.475313" transform="rotate(-0 342.678796 242.475313)">500</text>
     </g>
    </g>
    <g id="text_7">
     <text style="font-size: 10px; font-family: 'DejaVu Sans'; text-anchor: middle" x="206.006602" y="256.476094" transform="rotate(-0 206.006602 256.476094)">Episode</text>
    </g>
   </g>
   <g id="matplotlib.axis_2">
    <g id="ytick_1">
     <g id="line2d_7">
      <defs>
       <path id="m9f419aeb48" d="M 0 0 
L -3.5 0 
" style="stroke: #000000; stroke-width: 0.8"/>
      </defs>
      <g>
       <use xlink:href="#m9f419aeb48" x="55.667188" y="196.638208" style="stroke: #000000; stroke-width: 0.8"/>
      </g>
     </g>
     <g id="text_8">
      <text style="font-size: 10px; font-family: 'DejaVu Sans'; text-anchor: end" x="48.667188" y="200.437036" transform="rotate(-0 48.667188 200.437036)">−120</text>
     </g>
    </g>
    <g id="ytick_2">
     <g id="line2d_8">
      <g>
       <use xlink:href="#m9f419aeb48" x="55.667188" y="156.825105" style="stroke: #000000; stroke-width: 0.8"/>
      </g>
     </g>
     <g id="text_9">
      <text style="font-size: 10px; font-family: 'DejaVu Sans'; text-anchor: end" x="48.667188" y="160.623933" transform="rotate(-0 48.667188 160.623933)">−100</text>
     </g>
    </g>
    <g id="ytick_3">
     <g id="line2d_9">
      <g>
       <use xlink:href="#m9f419aeb48" x="55.667188" y="117.012003" style="stroke: #000000; stroke-width: 0.8"/>
      </g>
     </g>
     <g id="text_10">
      <text style="font-size: 10px; font-family: 'DejaVu Sans'; text-anchor: end" x="48.667188" y="120.810831" transform="rotate(-0 48.667188 120.810831)">−80</text>
     </g>
    </g>
    <g id="ytick_4">
     <g id="line2d_10">
      <g>
       <use xlink:href="#m9f419aeb48" x="55.667188" y="77.198901" style="stroke: #000000; stroke-width: 0.8"/>
      </g>
     </g>
     <g id="text_11">
      <text style="font-size: 10px; font-family: 'DejaVu Sans'; text-anchor: end" x="48.667188" y="80.997729" transform="rotate(-0 48.667188 80.997729)">−60</text>
     </g>
    </g>
    <g id="ytick_5">
     <g id="line2d_11">
      <g>
       <use xlink:href="#m9f419aeb48" x="55.667188" y="37.385798" style="stroke: #000000; stroke-width: 0.8"/>
      </g>
     </g>
     <g id="text_12">
      <text style="font-size: 10px; font-family: 'DejaVu Sans'; text-anchor: end" x="48.667188" y="41.184626" transform="rotate(-0 48.667188 41.184626)">−40</text>
     </g>
    </g>
    <g id="text_13">
     <text style="font-size: 10px; font-family: 'DejaVu Sans'; text-anchor: middle" x="14.797656" y="125.097422" transform="rotate(-90 14.797656 125.097422)">Return = -IAE</text>
    </g>
   </g>
   <g id="line2d_12">
    <path d="M 69.334407 117.063461 
L 69.882191 131.826357 
L 70.429976 78.920597 
L 70.97776 133.136819 
L 71.525544 131.863975 
L 72.073329 157.406181 
L 72.621113 114.203132 
L 73.168897 178.536572 
L 73.716682 104.292054 
L 74.264466 115.424728 
L 74.81225 172.770119 
L 75.360035 116.276832 
L 76.455603 109.294352 
L 77.003388 123.508699 
L 77.551172 98.762629 
L 78.098957 90.559708 
L 78.646741 114.579003 
L 79.194525 111.626166 
L 79.74231 180.0778 
L 80.290094 153.080763 
L 80.837878 85.610124 
L 81.385663 124.096829 
L 81.933447 124.421259 
L 82.481231 79.763279 
L 83.029016 151.245646 
L 84.124584 190.565783 
L 84.672369 76.115545 
L 85.220153 104.409762 
L 85.767937 164.337138 
L 86.315722 153.670248 
L 86.863506 89.266871 
L 87.41129 149.070282 
L 87.959075 102.635628 
L 88.506859 139.803884 
L 89.054643 152.748609 
L 89.602428 218.533999 
L 90.150212 132.552142 
L 90.697996 80.795229 
L 91.245781 166.631148 
L 91.793565 129.417133 
L 92.34135 108.761357 
L 92.889134 102.028919 
L 93.436918 82.177904 
L 93.984703 98.714069 
L 94.532487 91.747853 
L 95.080271 52.132483 
L 95.628056 102.532127 
L 96.17584 112.870127 
L 96.723624 100.334944 
L 97.271409 101.540889 
L 97.819193 124.496629 
L 98.366977 80.217502 
L 98.914762 123.052806 
L 99.462546 102.001536 
L 100.01033 165.932148 
L 101.105899 126.573701 
L 101.653683 89.275843 
L 102.201468 120.779816 
L 102.749252 85.292203 
L 103.297036 93.638041 
L 103.844821 77.642034 
L 104.392605 137.877477 
L 104.94039 72.762396 
L 105.488174 174.886329 
L 106.035958 138.86257 
L 106.583743 140.334529 
L 107.131527 98.04517 
L 107.679311 155.027784 
L 108.227096 126.685801 
L 108.77488 136.202072 
L 109.322664 165.939346 
L 109.870449 133.473694 
L 110.418233 190.042585 
L 111.513802 94.339203 
L 112.061586 97.164173 
L 112.60937 121.064915 
L 113.157155 137.426288 
L 113.704939 115.839015 
L 114.252723 211.424407 
L 114.800508 59.874934 
L 115.348292 82.024934 
L 115.896076 114.037652 
L 116.443861 87.719682 
L 116.991645 113.054046 
L 117.53943 131.91163 
L 118.087214 140.078 
L 118.634998 132.633189 
L 119.182783 119.294611 
L 119.730567 210.124355 
L 120.278351 125.75306 
L 120.826136 159.734473 
L 121.37392 124.143372 
L 121.921704 120.041474 
L 123.017273 203.862332 
L 123.565057 145.352317 
L 124.112842 107.821039 
L 124.660626 173.228838 
L 125.20841 136.856173 
L 125.756195 206.396783 
L 126.303979 155.065459 
L 126.851763 128.281207 
L 127.399548 180.943608 
L 127.947332 108.617717 
L 128.495116 114.220906 
L 129.042901 139.52628 
L 129.590685 143.730481 
L 130.686254 95.64676 
L 131.234038 196.895656 
L 131.781823 137.556919 
L 132.329607 195.836978 
L 132.877391 136.358295 
L 133.425176 110.527536 
L 133.97296 95.362355 
L 134.520744 133.326754 
L 135.068529 65.120845 
L 135.616313 90.481908 
L 136.164097 141.812084 
L 136.711882 78.670608 
L 137.259666 184.828571 
L 137.80745 122.694801 
L 138.355235 141.077834 
L 138.903019 146.893958 
L 139.450803 136.014549 
L 139.998588 71.356018 
L 140.546372 157.06047 
L 141.094156 98.162417 
L 141.641941 93.851385 
L 142.189725 94.044542 
L 142.737509 113.411714 
L 143.285294 142.72282 
L 143.833078 142.643158 
L 144.380863 101.293368 
L 145.476431 75.4168 
L 146.024216 121.439976 
L 146.572 121.984372 
L 147.119784 108.502184 
L 147.667569 122.247276 
L 148.215353 124.105266 
L 148.763137 160.475062 
L 149.310922 161.878711 
L 149.858706 78.820064 
L 150.40649 202.46238 
L 150.954275 98.775768 
L 151.502059 145.897547 
L 152.049843 88.041104 
L 152.597628 109.393251 
L 153.145412 117.613464 
L 153.693196 83.101195 
L 154.240981 116.962392 
L 154.788765 130.055044 
L 155.336549 160.143433 
L 155.884334 167.164843 
L 156.432118 165.658907 
L 156.979902 196.520661 
L 157.527687 117.312693 
L 158.075471 120.144329 
L 158.623256 150.51484 
L 159.17104 117.47428 
L 159.718824 148.053978 
L 160.266609 140.143614 
L 160.814393 102.958625 
L 161.362177 120.360908 
L 161.909962 125.293331 
L 162.457746 97.032609 
L 163.00553 133.096558 
L 163.553315 69.971631 
L 164.101099 88.044929 
L 164.648883 159.221397 
L 165.196668 123.146115 
L 165.744452 99.118163 
L 166.292236 135.983785 
L 166.840021 140.161112 
L 167.387805 181.963665 
L 167.935589 106.773224 
L 168.483374 125.795109 
L 169.031158 83.27452 
L 169.578942 123.549321 
L 170.126727 136.932585 
L 170.674511 77.743307 
L 171.222296 138.160638 
L 171.77008 94.963039 
L 172.317864 120.311179 
L 172.865649 122.051974 
L 173.413433 117.671049 
L 173.961217 116.846286 
L 174.509002 127.359628 
L 175.056786 187.924469 
L 175.60457 75.631007 
L 176.152355 114.825313 
L 176.700139 179.553148 
L 177.247923 110.629861 
L 177.795708 90.843223 
L 178.343492 53.950141 
L 178.891276 111.172488 
L 179.439061 185.112136 
L 179.986845 164.568086 
L 180.534629 67.040628 
L 181.082414 143.378432 
L 181.630198 88.831069 
L 182.177982 129.244976 
L 182.725767 144.48278 
L 183.273551 85.345524 
L 183.821336 147.889101 
L 184.36912 79.470547 
L 184.916904 162.634132 
L 185.464689 134.34821 
L 186.012473 125.564762 
L 186.560257 97.994778 
L 187.108042 36.294005 
L 187.655826 183.371698 
L 188.20361 108.678323 
L 188.751395 104.412001 
L 189.299179 129.669099 
L 189.846963 141.198252 
L 190.394748 73.544334 
L 190.942532 78.131713 
L 191.490316 165.967133 
L 192.038101 154.696185 
L 192.585885 94.088742 
L 193.133669 185.928376 
L 193.681454 122.997499 
L 194.229238 125.473399 
L 194.777022 99.756521 
L 195.324807 94.711863 
L 195.872591 174.704594 
L 196.420375 38.120096 
L 196.96816 82.713412 
L 197.515944 143.554231 
L 198.063729 154.997364 
L 198.611513 170.21318 
L 199.159297 33.621778 
L 199.707082 111.439653 
L 200.254866 42.693792 
L 200.80265 79.400036 
L 201.350435 104.441569 
L 201.898219 115.159288 
L 202.446003 77.097759 
L 203.541572 43.242251 
L 204.089356 57.516659 
L 204.637141 120.980122 
L 205.184925 80.960743 
L 205.732709 74.862838 
L 206.280494 103.325556 
L 206.828278 62.407866 
L 207.376062 68.312398 
L 207.923847 87.37889 
L 208.471631 90.145679 
L 209.019415 148.211151 
L 209.5672 151.962701 
L 210.114984 40.758177 
L 210.662769 84.834821 
L 211.210553 31.660845 
L 211.758337 90.804163 
L 212.306122 83.399256 
L 212.853906 51.137963 
L 213.949475 100.954607 
L 214.497259 84.630637 
L 215.045043 112.009082 
L 215.592828 65.555119 
L 216.140612 84.173329 
L 216.688396 107.690018 
L 217.236181 121.875829 
L 217.783965 68.942612 
L 218.331749 111.842601 
L 218.879534 118.394348 
L 219.975102 71.454614 
L 220.522887 80.148779 
L 221.618455 144.609569 
L 222.16624 69.316469 
L 223.261808 160.405142 
L 223.809593 82.768577 
L 224.357377 106.055936 
L 224.905162 116.314266 
L 225.452946 90.266485 
L 226.00073 85.775946 
L 226.548515 126.793933 
L 227.096299 83.157988 
L 227.644083 99.03062 
L 228.191868 101.140144 
L 228.739652 110.864692 
L 229.287436 67.406361 
L 229.835221 76.51487 
L 230.383005 97.452539 
L 230.930789 83.289217 
L 231.478574 92.079634 
L 232.026358 84.44682 
L 232.574142 58.02499 
L 233.121927 89.869767 
L 233.669711 56.580537 
L 234.76528 132.739965 
L 235.313064 112.550944 
L 235.860848 104.920023 
L 236.956417 36.102641 
L 237.504202 65.688764 
L 238.051986 135.790277 
L 238.59977 63.726074 
L 239.695339 82.221299 
L 240.243123 168.443233 
L 240.790908 66.711704 
L 241.338692 101.19498 
L 241.886476 55.559645 
L 242.434261 135.315018 
L 242.982045 72.670689 
L 243.529829 124.120326 
L 244.077614 66.781229 
L 244.625398 116.571472 
L 245.173182 95.099381 
L 245.720967 81.832374 
L 246.268751 113.328394 
L 246.816535 75.850305 
L 247.36432 58.531857 
L 248.459888 94.159911 
L 249.007673 96.868246 
L 250.103242 127.285054 
L 250.651026 73.172033 
L 251.19881 113.02534 
L 251.746595 122.722018 
L 252.294379 59.982922 
L 252.842163 83.457892 
L 253.389948 128.8555 
L 253.937732 80.766888 
L 254.485516 162.418259 
L 255.033301 129.968469 
L 255.581085 64.27524 
L 256.128869 88.653415 
L 256.676654 73.452063 
L 257.224438 72.387487 
L 257.772222 108.302369 
L 258.320007 96.717286 
L 258.867791 81.6335 
L 259.415575 87.580778 
L 259.96336 99.732675 
L 260.511144 126.544221 
L 261.058928 87.13729 
L 261.606713 93.974495 
L 262.154497 57.863859 
L 262.702281 87.690475 
L 263.250066 59.003895 
L 263.79785 48.24712 
L 264.345635 83.954282 
L 264.893419 52.570605 
L 265.441203 106.473258 
L 265.988988 51.468286 
L 266.536772 85.660015 
L 267.084556 98.75837 
L 267.632341 53.800969 
L 268.180125 86.135351 
L 268.727909 71.586615 
L 269.275694 112.530747 
L 269.823478 55.740871 
L 270.371262 70.170828 
L 270.919047 93.298366 
L 271.466831 156.321855 
L 272.014615 74.523044 
L 272.5624 104.87738 
L 273.110184 124.845158 
L 273.657968 68.212143 
L 274.205753 95.524112 
L 274.753537 111.947542 
L 275.301321 81.139505 
L 275.849106 70.016172 
L 276.39689 98.903867 
L 276.944675 71.209242 
L 277.492459 95.519787 
L 278.040243 88.118571 
L 278.588028 66.282074 
L 279.135812 101.823184 
L 279.683596 89.034024 
L 280.231381 67.447468 
L 280.779165 64.072193 
L 281.326949 55.135388 
L 281.874734 92.590546 
L 282.422518 73.228083 
L 282.970302 167.314985 
L 283.518087 75.833037 
L 284.065871 93.780239 
L 284.613655 100.855273 
L 285.16144 86.422614 
L 285.709224 137.440992 
L 286.257008 77.961335 
L 286.804793 108.523406 
L 287.352577 50.071967 
L 287.900361 123.136298 
L 288.448146 88.315815 
L 288.99593 77.767645 
L 289.543714 95.171145 
L 290.091499 121.050234 
L 290.639283 75.415547 
L 291.187068 60.779402 
L 291.734852 97.980962 
L 292.282636 58.495317 
L 292.830421 95.310586 
L 293.925989 100.831233 
L 294.473774 107.438253 
L 295.021558 93.226377 
L 295.569342 65.658981 
L 296.117127 72.977794 
L 296.664911 99.296397 
L 297.212695 79.284665 
L 297.76048 143.930038 
L 298.308264 111.807882 
L 298.856048 71.761592 
L 299.403833 105.980846 
L 299.951617 69.07918 
L 300.499401 54.303455 
L 301.047186 101.79235 
L 301.59497 101.940535 
L 302.142754 68.397177 
L 302.690539 56.779713 
L 303.238323 63.459641 
L 303.786108 102.968957 
L 304.333892 104.327273 
L 304.881676 74.68077 
L 305.429461 57.947565 
L 305.977245 84.007445 
L 306.525029 82.75731 
L 307.072814 54.673712 
L 307.620598 152.894216 
L 308.168382 56.307212 
L 308.716167 108.4345 
L 309.263951 95.159436 
L 309.811735 64.796645 
L 310.35952 93.452976 
L 310.907304 159.489688 
L 311.455088 85.05088 
L 312.002873 74.38069 
L 312.550657 87.710393 
L 313.098441 87.654208 
L 313.646226 161.482961 
L 314.19401 73.861033 
L 314.741794 70.425262 
L 315.289579 138.35587 
L 315.837363 90.576442 
L 316.385148 77.378672 
L 316.932932 53.6664 
L 317.480716 93.522916 
L 318.028501 107.346029 
L 318.576285 52.010384 
L 319.124069 72.270432 
L 319.671854 70.237342 
L 320.767422 63.565705 
L 321.315207 64.362153 
L 321.862991 102.702795 
L 322.410775 106.890359 
L 322.95856 135.698741 
L 323.506344 151.251169 
L 324.601913 36.74851 
L 325.149697 106.613676 
L 325.697481 141.873187 
L 326.245266 108.220677 
L 326.79305 101.631366 
L 327.340834 106.026037 
L 327.888619 64.812165 
L 328.436403 101.43527 
L 328.984187 148.611521 
L 329.531972 103.969567 
L 330.079756 119.359163 
L 330.627541 103.709935 
L 331.175325 187.148661 
L 331.723109 99.181595 
L 332.270894 96.646087 
L 332.818678 52.600097 
L 333.366462 60.14454 
L 333.914247 57.56589 
L 334.462031 62.282804 
L 335.009815 97.100379 
L 335.5576 64.755146 
L 336.105384 121.445688 
L 336.653168 90.97978 
L 337.200953 108.093268 
L 337.748737 107.141161 
L 338.296521 74.38181 
L 338.844306 129.130688 
L 339.39209 86.368117 
L 339.939874 91.201763 
L 340.487659 104.042984 
L 341.035443 52.374708 
L 341.583227 92.491571 
L 342.678796 74.185334 
L 342.678796 74.185334 
" clip-path="url(#p3b8cc5e757)" style="fill: none; stroke: #206583; stroke-opacity: 0.25; stroke-width: 0.8; stroke-linecap: square"/>
   </g>
   <g id="line2d_13">
    <path d="M 79.74231 124.637572 
L 80.290094 126.438437 
L 80.837878 124.127625 
L 81.385663 126.386437 
L 81.933447 125.950659 
L 82.481231 123.345624 
L 83.029016 123.037597 
L 83.5768 125.920541 
L 84.124584 126.522002 
L 84.672369 125.113176 
L 85.767937 124.140779 
L 86.315722 126.01045 
L 86.863506 124.842681 
L 87.41129 126.831477 
L 87.959075 125.787823 
L 88.506859 127.839886 
L 89.054643 130.949331 
L 89.602428 136.147081 
L 90.150212 137.19338 
L 90.697996 132.229251 
L 91.245781 132.906771 
L 91.793565 135.097121 
L 92.34135 134.330347 
L 92.889134 133.21073 
L 93.436918 133.331462 
L 93.984703 130.704883 
L 94.532487 126.699175 
L 95.080271 119.77751 
L 95.628056 121.098339 
L 96.17584 121.521358 
L 97.271409 115.71478 
L 97.819193 117.476268 
L 98.366977 114.033629 
L 98.914762 115.054488 
L 99.462546 113.16437 
L 100.01033 113.823547 
L 100.558115 110.15439 
L 101.105899 109.855468 
L 101.653683 110.279498 
L 102.749252 105.780685 
L 103.297036 105.024519 
L 103.844821 103.805175 
L 104.392605 106.590154 
L 104.94039 105.29257 
L 106.035958 113.785998 
L 106.583743 115.676118 
L 107.131527 114.93487 
L 107.679311 117.669512 
L 108.227096 118.926758 
L 108.77488 119.51203 
L 109.322664 123.798122 
L 109.870449 124.319167 
L 110.418233 128.721219 
L 110.966017 127.293316 
L 111.513802 124.752734 
L 112.061586 123.282258 
L 112.60937 124.871711 
L 113.157155 125.704035 
L 113.704939 127.231375 
L 114.252723 133.120694 
L 114.800508 132.232339 
L 115.348292 129.439712 
L 115.896076 131.503474 
L 116.443861 127.145142 
L 116.991645 125.854716 
L 117.53943 125.433571 
L 118.087214 127.535212 
L 118.634998 126.415483 
L 119.182783 126.045923 
L 119.730567 129.742037 
L 120.278351 127.732723 
L 120.826136 129.045762 
L 121.37392 125.750801 
L 121.921704 124.884171 
L 122.469489 128.125466 
L 123.017273 133.460374 
L 123.565057 134.674744 
L 124.112842 133.194482 
L 124.660626 136.063973 
L 125.20841 132.335561 
L 125.756195 139.661654 
L 126.303979 143.31368 
L 126.851763 144.025857 
L 127.399548 148.687054 
L 127.947332 148.465237 
L 128.495116 147.580701 
L 129.042901 147.553115 
L 129.590685 148.10798 
L 130.138469 148.016258 
L 130.686254 142.292378 
L 131.234038 145.849508 
L 131.781823 144.740631 
L 132.329607 148.325311 
L 132.877391 149.141152 
L 133.425176 146.709273 
L 133.97296 141.284274 
L 134.520744 140.682996 
L 135.068529 138.547986 
L 135.616313 134.41064 
L 136.164097 134.658435 
L 136.711882 128.272127 
L 137.259666 129.760282 
L 137.80745 129.480962 
L 138.355235 127.487673 
L 138.903019 129.401485 
L 139.450803 130.491168 
L 139.998588 127.082654 
L 140.546372 127.749154 
L 141.094156 126.784266 
L 141.641941 126.694497 
L 142.189725 121.551941 
L 142.737509 120.344681 
L 143.285294 117.688973 
L 143.833078 118.003216 
L 144.928647 117.154256 
L 145.476431 114.258758 
L 146.024216 117.074715 
L 146.572 118.649838 
L 147.119784 116.984343 
L 147.667569 119.163177 
L 148.215353 116.127011 
L 148.763137 118.016024 
L 149.310922 119.056068 
L 149.858706 115.652373 
L 150.40649 118.974765 
L 150.954275 120.345752 
L 152.049843 119.281541 
L 152.597628 120.058634 
L 153.145412 121.23708 
L 154.240981 118.433533 
L 154.788765 117.804127 
L 155.336549 120.74663 
L 156.979902 132.990146 
L 157.527687 132.756562 
L 158.075471 133.33867 
L 158.623256 134.752048 
L 159.17104 134.420498 
L 159.718824 133.799444 
L 160.266609 132.712689 
L 160.814393 133.919617 
L 161.362177 129.814544 
L 161.909962 131.140422 
L 162.457746 128.697175 
L 163.00553 130.949948 
L 163.553315 128.978867 
L 164.101099 127.50044 
L 164.648883 131.30645 
L 165.196668 131.615636 
L 165.744452 130.068792 
L 166.840021 127.510623 
L 167.387805 128.325861 
L 167.935589 123.838489 
L 168.483374 124.26261 
L 169.031158 122.41912 
L 169.578942 121.070844 
L 170.126727 122.043759 
L 170.674511 118.528225 
L 171.222296 118.429077 
L 171.77008 118.029297 
L 172.317864 118.026811 
L 172.865649 117.864743 
L 173.413433 118.896665 
L 173.961217 118.084151 
L 174.509002 120.953551 
L 175.056786 125.947528 
L 175.60457 121.768009 
L 176.152355 121.351969 
L 176.700139 125.373718 
L 177.247923 124.106022 
L 177.795708 121.640127 
L 178.343492 115.239451 
L 178.891276 115.459414 
L 179.439061 118.425266 
L 179.986845 122.489944 
L 180.534629 119.664509 
L 181.082414 119.986802 
L 181.630198 120.54119 
L 182.177982 120.095407 
L 182.725767 122.571394 
L 183.273551 120.823111 
L 183.821336 122.114967 
L 184.36912 120.204942 
L 184.916904 122.494334 
L 185.464689 122.843764 
L 186.012473 119.725778 
L 186.560257 120.843967 
L 187.108042 116.917401 
L 187.655826 117.108329 
L 188.20361 117.010752 
L 188.751395 117.689191 
L 189.299179 121.475139 
L 189.846963 122.976427 
L 190.394748 117.398037 
L 190.942532 113.076218 
L 191.490316 118.022543 
L 192.038101 118.588431 
L 192.585885 118.851315 
L 193.133669 121.685485 
L 193.681454 120.611221 
L 194.229238 122.617614 
L 194.777022 120.210985 
L 195.872591 121.576574 
L 196.420375 116.765169 
L 196.96816 114.622601 
L 197.515944 116.900574 
L 198.063729 122.835742 
L 198.611513 122.177816 
L 199.159297 118.424989 
L 199.707082 118.776371 
L 200.254866 114.427606 
L 200.80265 111.337695 
L 201.898219 114.733935 
L 202.993788 105.575446 
L 203.541572 103.033122 
L 204.089356 96.612536 
L 204.637141 96.511667 
L 205.184925 94.286034 
L 205.732709 93.04135 
L 206.280494 93.472035 
L 206.828278 87.857198 
L 207.376062 89.366813 
L 207.923847 89.600087 
L 208.471631 86.92966 
L 209.019415 86.590349 
L 209.5672 85.677825 
L 210.114984 86.034645 
L 210.662769 84.704403 
L 211.210553 84.152756 
L 211.758337 84.722962 
L 212.306122 83.670847 
L 212.853906 80.469781 
L 213.40169 80.470363 
L 214.497259 84.567724 
L 215.045043 87.292345 
L 215.592828 84.521095 
L 216.140612 84.681725 
L 216.688396 86.323084 
L 217.236181 87.250597 
L 217.783965 87.577335 
L 218.331749 89.753845 
L 218.879534 91.304618 
L 219.427318 91.440665 
L 220.522887 84.012142 
L 221.618455 90.747297 
L 222.16624 92.630079 
L 222.714024 93.887621 
L 223.261808 97.737916 
L 224.357377 100.766772 
L 224.905162 101.534755 
L 225.452946 101.816548 
L 226.00073 100.504891 
L 226.548515 103.566832 
L 227.096299 103.516065 
L 227.644083 103.083095 
L 228.191868 102.04631 
L 228.739652 104.142414 
L 229.835221 99.826629 
L 230.383005 100.055924 
L 231.478574 101.244197 
L 232.026358 99.682211 
L 232.574142 95.352982 
L 233.121927 96.380647 
L 234.217495 90.09909 
L 234.76528 92.597659 
L 235.313064 92.922409 
L 235.860848 92.352697 
L 236.408633 91.412599 
L 236.956417 88.928933 
L 237.504202 85.873675 
L 238.051986 88.505289 
L 238.59977 86.740062 
L 239.695339 83.918063 
L 240.243123 88.969906 
L 240.790908 88.479748 
L 241.338692 88.66687 
L 241.886476 87.280391 
L 242.434261 89.442161 
L 242.982045 88.853354 
L 243.529829 92.158121 
L 244.077614 91.003694 
L 244.625398 94.003241 
L 245.173182 94.050786 
L 245.720967 91.505407 
L 246.268751 91.544279 
L 246.816535 90.090793 
L 247.36432 89.444161 
L 247.912104 91.507317 
L 248.459888 92.930874 
L 249.007673 90.984773 
L 250.103242 96.046639 
L 250.651026 95.594175 
L 251.19881 92.823281 
L 251.746595 95.623796 
L 252.294379 93.563194 
L 252.842163 94.958106 
L 253.389948 94.63513 
L 253.937732 95.03994 
L 254.485516 96.954837 
L 255.033301 100.114199 
L 255.581085 97.499387 
L 256.676654 96.758073 
L 257.224438 94.711028 
L 258.320007 98.242902 
L 258.867791 98.456289 
L 259.415575 98.127332 
L 259.96336 98.270554 
L 260.511144 99.046671 
L 261.058928 97.039282 
L 261.606713 98.079405 
L 262.154497 95.321331 
L 262.702281 93.569754 
L 263.250066 93.520803 
L 263.79785 91.760264 
L 264.345635 89.515203 
L 264.893419 88.105389 
L 265.441203 85.308139 
L 265.988988 81.38313 
L 266.536772 82.452369 
L 267.084556 82.957616 
L 267.632341 81.975062 
L 268.180125 82.662455 
L 268.727909 80.826667 
L 269.275694 81.61734 
L 269.823478 80.322709 
L 270.371262 79.452211 
L 270.919047 79.130496 
L 271.466831 80.619378 
L 272.014615 79.988665 
L 272.5624 80.533809 
L 273.110184 83.882874 
L 273.657968 82.908958 
L 274.205753 84.734969 
L 274.753537 87.91999 
L 275.301321 87.779251 
L 275.849106 88.651529 
L 276.39689 88.27306 
L 276.944675 89.260108 
L 277.492459 89.753096 
L 278.040243 89.221106 
L 279.135812 90.629553 
L 279.683596 91.501924 
L 280.231381 89.24776 
L 280.779165 89.664326 
L 281.326949 88.912554 
L 281.874734 88.877163 
L 282.422518 84.722474 
L 282.970302 89.362071 
L 284.065871 86.356608 
L 284.613655 87.988765 
L 285.16144 87.53369 
L 285.709224 88.808362 
L 286.257008 88.649454 
L 286.804793 90.574815 
L 287.352577 88.13322 
L 287.900361 90.729573 
L 288.448146 90.369375 
L 288.99593 89.851828 
L 289.543714 91.296282 
L 290.091499 92.257634 
L 290.639283 91.576711 
L 291.187068 91.243307 
L 291.734852 92.938746 
L 292.830421 93.242744 
L 293.378205 94.500561 
L 293.925989 91.176374 
L 294.473774 92.756634 
L 295.021558 92.728941 
L 295.569342 90.969127 
L 296.117127 90.296886 
L 296.664911 88.389656 
L 297.212695 88.455822 
L 297.76048 90.226154 
L 298.308264 93.31295 
L 298.856048 90.744215 
L 299.403833 91.627466 
L 299.951617 91.193043 
L 300.499401 89.149658 
L 301.047186 88.186764 
L 301.59497 89.513013 
L 302.142754 89.893902 
L 302.690539 87.83384 
L 303.238323 88.082056 
L 304.333892 88.762117 
L 304.881676 87.454594 
L 305.429461 84.980059 
L 305.977245 84.519113 
L 306.525029 85.374029 
L 307.072814 84.458825 
L 307.620598 87.138716 
L 308.168382 85.989843 
L 308.716167 84.215066 
L 309.263951 83.382644 
L 309.811735 83.034397 
L 310.35952 82.408003 
L 310.907304 86.928529 
L 311.455088 88.4659 
L 312.002873 87.095317 
L 312.550657 86.38381 
L 313.098441 87.346661 
L 313.646226 92.581824 
L 314.19401 93.101893 
L 314.741794 91.474709 
L 315.289579 93.176139 
L 316.385148 94.942478 
L 316.932932 93.425425 
L 317.480716 93.963706 
L 318.028501 96.597321 
L 318.576285 91.55313 
L 319.124069 92.351291 
L 319.671854 90.441433 
L 320.219638 89.035955 
L 320.767422 88.974408 
L 321.315207 87.519866 
L 321.862991 84.680522 
L 322.410775 85.772496 
L 323.506344 92.015437 
L 324.054128 92.061841 
L 324.601913 85.825119 
L 325.149697 87.462751 
L 325.697481 91.035147 
L 326.245266 89.528387 
L 326.79305 90.081134 
L 327.340834 91.513502 
L 327.888619 92.07079 
L 328.436403 92.466408 
L 328.984187 94.529682 
L 330.079756 99.482078 
L 330.627541 101.155708 
L 331.175325 107.160647 
L 332.270894 110.555639 
L 333.366462 105.713213 
L 334.462031 97.358152 
L 335.009815 97.784056 
L 335.5576 99.184388 
L 336.105384 99.925989 
L 336.653168 97.381318 
L 337.200953 97.374948 
L 337.748737 97.650438 
L 338.296521 96.068226 
L 338.844306 99.284152 
L 339.39209 98.530795 
L 339.939874 95.660307 
L 340.487659 95.663978 
L 341.035443 92.314755 
L 341.583227 91.753837 
L 342.131012 86.601004 
L 342.678796 85.351191 
L 342.678796 85.351191 
" clip-path="url(#p3b8cc5e757)" style="fill: none; stroke: #d16c38; stroke-width: 1.5; stroke-linecap: square"/>
   </g>
   <g id="patch_3">
    <path d="M 55.667188 227.877656 
L 55.667188 22.317188 
" style="fill: none; stroke: #000000; stroke-width: 0.8; stroke-linejoin: miter; stroke-linecap: square"/>
   </g>
   <g id="patch_4">
    <path d="M 55.667188 227.877656 
L 356.346016 227.877656 
" style="fill: none; stroke: #000000; stroke-width: 0.8; stroke-linejoin: miter; stroke-linecap: square"/>
   </g>
   <g id="text_14">
    <text style="font-size: 12px; font-family: 'DejaVu Sans'; text-anchor: middle" x="206.006602" y="16.317187" transform="rotate(-0 206.006602 16.317187)">DQN</text>
   </g>
   <g id="legend_1">
    <g id="line2d_14">
     <path d="M 253.511016 203.955156 
L 261.511016 203.955156 
L 269.511016 203.955156 
" style="fill: none; stroke: #206583; stroke-opacity: 0.25; stroke-width: 0.8; stroke-linecap: square"/>
    </g>
    <g id="text_15">
     <text style="font-size: 8px; font-family: 'DejaVu Sans'; text-anchor: start" x="275.911016" y="206.755156" transform="rotate(-0 275.911016 206.755156)">Exploratory return</text>
    </g>
    <g id="line2d_15">
     <path d="M 253.511016 215.955781 
L 261.511016 215.955781 
L 269.511016 215.955781 
" style="fill: none; stroke: #d16c38; stroke-width: 1.5; stroke-linecap: square"/>
    </g>
    <g id="text_16">
     <text style="font-size: 8px; font-family: 'DejaVu Sans'; text-anchor: start" x="275.911016" y="218.755781" transform="rotate(-0 275.911016 218.755781)">20-episode mean</text>
    </g>
   </g>
  </g>
  <g id="axes_2">
   <g id="patch_5">
    <path d="M 404.308359 227.877656 
L 704.987188 227.877656 
L 704.987188 22.317187 
L 404.308359 22.317187 
z
" style="fill: #ffffff"/>
   </g>
   <g id="matplotlib.axis_3">
    <g id="xtick_7">
     <g id="line2d_16">
      <g>
       <use xlink:href="#m66b865cbd8" x="415.214524" y="227.877656" style="stroke: #000000; stroke-width: 0.8"/>
      </g>
     </g>
     <g id="text_17">
      <text style="font-size: 10px; font-family: 'DejaVu Sans'; text-anchor: middle" x="415.214524" y="242.475313" transform="rotate(-0 415.214524 242.475313)">0</text>
     </g>
    </g>
    <g id="xtick_8">
     <g id="line2d_17">
      <g>
       <use xlink:href="#m66b865cbd8" x="470.435613" y="227.877656" style="stroke: #000000; stroke-width: 0.8"/>
      </g>
     </g>
     <g id="text_18">
      <text style="font-size: 10px; font-family: 'DejaVu Sans'; text-anchor: middle" x="470.435613" y="242.475313" transform="rotate(-0 470.435613 242.475313)">100</text>
     </g>
    </g>
    <g id="xtick_9">
     <g id="line2d_18">
      <g>
       <use xlink:href="#m66b865cbd8" x="525.656702" y="227.877656" style="stroke: #000000; stroke-width: 0.8"/>
      </g>
     </g>
     <g id="text_19">
      <text style="font-size: 10px; font-family: 'DejaVu Sans'; text-anchor: middle" x="525.656702" y="242.475313" transform="rotate(-0 525.656702 242.475313)">200</text>
     </g>
    </g>
    <g id="xtick_10">
     <g id="line2d_19">
      <g>
       <use xlink:href="#m66b865cbd8" x="580.877791" y="227.877656" style="stroke: #000000; stroke-width: 0.8"/>
      </g>
     </g>
     <g id="text_20">
      <text style="font-size: 10px; font-family: 'DejaVu Sans'; text-anchor: middle" x="580.877791" y="242.475313" transform="rotate(-0 580.877791 242.475313)">300</text>
     </g>
    </g>
    <g id="xtick_11">
     <g id="line2d_20">
      <g>
       <use xlink:href="#m66b865cbd8" x="636.098879" y="227.877656" style="stroke: #000000; stroke-width: 0.8"/>
      </g>
     </g>
     <g id="text_21">
      <text style="font-size: 10px; font-family: 'DejaVu Sans'; text-anchor: middle" x="636.098879" y="242.475313" transform="rotate(-0 636.098879 242.475313)">400</text>
     </g>
    </g>
    <g id="xtick_12">
     <g id="line2d_21">
      <g>
       <use xlink:href="#m66b865cbd8" x="691.319968" y="227.877656" style="stroke: #000000; stroke-width: 0.8"/>
      </g>
     </g>
     <g id="text_22">
      <text style="font-size: 10px; font-family: 'DejaVu Sans'; text-anchor: middle" x="691.319968" y="242.475313" transform="rotate(-0 691.319968 242.475313)">500</text>
     </g>
    </g>
    <g id="text_23">
     <text style="font-size: 10px; font-family: 'DejaVu Sans'; text-anchor: middle" x="554.647773" y="256.476094" transform="rotate(-0 554.647773 256.476094)">Episode</text>
    </g>
   </g>
   <g id="matplotlib.axis_4">
    <g id="ytick_6">
     <g id="line2d_22">
      <g>
       <use xlink:href="#m9f419aeb48" x="404.308359" y="224.602294" style="stroke: #000000; stroke-width: 0.8"/>
      </g>
     </g>
     <g id="text_24">
      <text style="font-size: 10px; font-family: 'DejaVu Sans'; text-anchor: end" x="397.308359" y="228.401122" transform="rotate(-0 397.308359 228.401122)">0.0</text>
     </g>
    </g>
    <g id="ytick_7">
     <g id="line2d_23">
      <g>
       <use xlink:href="#m9f419aeb48" x="404.308359" y="181.789065" style="stroke: #000000; stroke-width: 0.8"/>
      </g>
     </g>
     <g id="text_25">
      <text style="font-size: 10px; font-family: 'DejaVu Sans'; text-anchor: end" x="397.308359" y="185.587894" transform="rotate(-0 397.308359 185.587894)">0.2</text>
     </g>
    </g>
    <g id="ytick_8">
     <g id="line2d_24">
      <g>
       <use xlink:href="#m9f419aeb48" x="404.308359" y="138.975837" style="stroke: #000000; stroke-width: 0.8"/>
      </g>
     </g>
     <g id="text_26">
      <text style="font-size: 10px; font-family: 'DejaVu Sans'; text-anchor: end" x="397.308359" y="142.774665" transform="rotate(-0 397.308359 142.774665)">0.4</text>
     </g>
    </g>
    <g id="ytick_9">
     <g id="line2d_25">
      <g>
       <use xlink:href="#m9f419aeb48" x="404.308359" y="96.162609" style="stroke: #000000; stroke-width: 0.8"/>
      </g>
     </g>
     <g id="text_27">
      <text style="font-size: 10px; font-family: 'DejaVu Sans'; text-anchor: end" x="397.308359" y="99.961437" transform="rotate(-0 397.308359 99.961437)">0.6</text>
     </g>
    </g>
    <g id="ytick_10">
     <g id="line2d_26">
      <g>
       <use xlink:href="#m9f419aeb48" x="404.308359" y="53.349381" style="stroke: #000000; stroke-width: 0.8"/>
      </g>
     </g>
     <g id="text_28">
      <text style="font-size: 10px; font-family: 'DejaVu Sans'; text-anchor: end" x="397.308359" y="57.148209" transform="rotate(-0 397.308359 57.148209)">0.8</text>
     </g>
    </g>
    <g id="text_29">
     <text style="font-size: 10px; font-family: 'DejaVu Sans'; text-anchor: middle" x="375.002891" y="125.097422" transform="rotate(-90 375.002891 125.097422)">Mean Huber loss</text>
    </g>
   </g>
   <g id="line2d_27">
    <path d="M 417.975579 31.660845 
L 418.52779 35.01315 
L 419.080001 76.432346 
L 420.736633 218.533999 
L 421.288844 209.264839 
L 421.841055 173.054856 
L 422.393266 214.682927 
L 422.945477 216.514431 
L 423.497688 181.687858 
L 424.049899 203.987281 
L 424.602109 205.56965 
L 425.15432 191.047859 
L 425.706531 196.168891 
L 426.258742 197.717436 
L 426.810953 192.643503 
L 427.363164 184.932397 
L 427.915375 189.505437 
L 428.467586 189.105805 
L 429.019797 182.491615 
L 429.572007 177.349826 
L 430.124218 179.605588 
L 430.676429 176.01269 
L 431.22864 173.691508 
L 431.780851 176.329238 
L 432.885273 162.379549 
L 433.437484 162.827479 
L 433.989695 157.419668 
L 434.541905 160.484085 
L 435.094116 156.67185 
L 435.646327 148.591553 
L 436.198538 151.535369 
L 436.750749 144.829963 
L 437.30296 141.435132 
L 437.855171 145.353284 
L 438.407382 151.0043 
L 438.959593 148.247027 
L 439.511803 144.156728 
L 440.064014 149.544773 
L 440.616225 138.815993 
L 441.168436 144.530006 
L 441.720647 139.329325 
L 442.272858 127.749654 
L 442.825069 131.281659 
L 443.37728 137.301361 
L 443.929491 130.877392 
L 444.481701 131.005399 
L 445.033912 127.38795 
L 445.586123 137.587883 
L 446.138334 134.998894 
L 446.690545 137.664601 
L 447.242756 136.9146 
L 447.794967 134.640661 
L 448.347178 136.372535 
L 448.899389 135.051716 
L 449.451599 135.108385 
L 450.00381 136.514662 
L 450.556021 142.39495 
L 451.108232 141.380065 
L 452.212654 136.729527 
L 452.764865 136.83688 
L 453.317076 146.644145 
L 453.869287 145.343389 
L 454.421497 145.311526 
L 454.973708 145.01239 
L 455.525919 137.43631 
L 456.07813 144.419732 
L 456.630341 146.804652 
L 457.182552 139.169479 
L 457.734763 144.205236 
L 458.286974 134.272946 
L 458.839184 135.802009 
L 459.391395 133.815427 
L 459.943606 132.471457 
L 460.495817 129.329246 
L 461.048028 127.509292 
L 461.600239 136.861988 
L 462.15245 134.936102 
L 462.704661 135.587707 
L 463.256872 129.101168 
L 463.809082 140.397124 
L 464.361293 139.95 
L 464.913504 141.379084 
L 465.465715 144.350104 
L 466.017926 141.474181 
L 466.570137 140.709312 
L 467.122348 141.022399 
L 467.674559 142.999939 
L 468.77898 129.67468 
L 469.331191 140.36727 
L 469.883402 139.426615 
L 470.435613 132.640952 
L 470.987824 127.472282 
L 471.540035 136.397928 
L 472.092246 141.821864 
L 472.644457 136.957309 
L 473.196668 148.453595 
L 473.748878 138.793891 
L 474.301089 140.006329 
L 474.8533 139.171334 
L 475.405511 144.00993 
L 475.957722 139.292996 
L 476.509933 138.311446 
L 477.062144 138.002115 
L 477.614355 135.569754 
L 478.166566 140.131276 
L 478.718776 136.231766 
L 479.270987 135.416022 
L 480.375409 132.733926 
L 480.92762 132.936808 
L 481.479831 137.735562 
L 482.584253 132.006901 
L 483.136464 130.877705 
L 483.688674 132.847901 
L 484.240885 119.984678 
L 484.793096 131.945892 
L 485.345307 130.327296 
L 485.897518 128.005365 
L 486.449729 129.636677 
L 487.00194 126.816434 
L 487.554151 131.167265 
L 488.106362 132.770658 
L 488.658572 131.690008 
L 489.210783 128.385146 
L 489.762994 130.581345 
L 490.315205 135.387166 
L 490.867416 135.886 
L 491.419627 125.450872 
L 492.524049 130.723522 
L 493.07626 128.091311 
L 493.62847 132.367236 
L 494.180681 124.682792 
L 494.732892 132.107513 
L 495.285103 121.839548 
L 495.837314 123.087677 
L 496.941736 131.624015 
L 497.493947 129.040705 
L 498.046157 131.889167 
L 498.598368 132.608151 
L 499.150579 131.370367 
L 500.255001 132.926542 
L 500.807212 132.119513 
L 501.359423 126.47375 
L 501.911634 132.995909 
L 502.463845 124.972755 
L 503.016055 132.814237 
L 503.568266 133.475237 
L 504.120477 129.200304 
L 504.672688 122.459864 
L 505.224899 129.807773 
L 505.77711 129.428961 
L 506.329321 136.716542 
L 506.881532 132.445842 
L 507.433743 125.679889 
L 508.538164 135.188058 
L 509.090375 131.102473 
L 509.642586 130.879229 
L 510.194797 129.248363 
L 510.747008 134.451845 
L 511.299219 136.307172 
L 511.85143 131.692424 
L 512.403641 130.806467 
L 512.955851 124.887387 
L 513.508062 136.408234 
L 514.060273 127.448108 
L 514.612484 135.84198 
L 515.164695 133.515991 
L 515.716906 129.464364 
L 516.269117 126.736598 
L 517.373539 129.181037 
L 517.925749 125.631155 
L 518.47796 135.369112 
L 519.030171 127.703967 
L 519.582382 131.871276 
L 520.134593 127.58382 
L 520.686804 120.423133 
L 521.239015 122.391613 
L 521.791226 130.627653 
L 522.343437 121.503159 
L 522.895647 127.571145 
L 523.447858 127.2234 
L 524.000069 130.224848 
L 524.55228 127.189374 
L 525.104491 134.513085 
L 525.656702 127.708194 
L 526.208913 126.925551 
L 526.761124 131.048271 
L 527.313335 124.419375 
L 527.865545 130.250424 
L 528.417756 134.827076 
L 528.969967 126.653805 
L 529.522178 128.005773 
L 530.074389 130.321173 
L 530.6266 124.748105 
L 531.178811 127.768861 
L 531.731022 128.955402 
L 532.283233 137.311639 
L 532.835443 128.435683 
L 533.387654 130.556866 
L 533.939865 129.733661 
L 534.492076 135.346635 
L 535.044287 137.858531 
L 535.596498 132.935503 
L 536.148709 130.930018 
L 536.70092 124.764248 
L 537.25313 133.523567 
L 537.805341 126.567169 
L 538.357552 126.412467 
L 538.909763 125.226736 
L 539.461974 124.409733 
L 540.014185 133.542556 
L 540.566396 137.443739 
L 541.118607 135.378883 
L 541.670818 131.199608 
L 542.223028 131.240941 
L 542.775239 133.524568 
L 543.32745 139.26444 
L 543.879661 139.192989 
L 544.431872 137.541418 
L 545.536294 133.595648 
L 546.088505 123.643572 
L 546.640716 128.64789 
L 547.192926 131.661625 
L 547.745137 127.927147 
L 548.297348 121.222969 
L 548.849559 129.470447 
L 549.40177 126.098492 
L 549.953981 123.905823 
L 550.506192 116.437912 
L 551.058403 136.037421 
L 551.610614 127.076039 
L 552.162824 127.191669 
L 552.715035 132.992724 
L 553.267246 122.770775 
L 553.819457 126.617835 
L 554.371668 114.883626 
L 554.923879 119.487853 
L 555.47609 117.110476 
L 556.028301 110.698429 
L 556.580512 115.340163 
L 557.132722 116.640222 
L 557.684933 113.73891 
L 558.789355 119.545381 
L 559.341566 117.891525 
L 559.893777 119.405837 
L 560.445988 114.801701 
L 560.998199 120.688151 
L 561.55041 115.924625 
L 562.10262 119.120374 
L 562.654831 121.207124 
L 563.207042 117.096663 
L 563.759253 120.311787 
L 564.311464 130.773806 
L 564.863675 127.801327 
L 565.415886 127.775828 
L 565.968097 124.662756 
L 566.520308 128.413955 
L 567.072518 122.763543 
L 567.624729 129.725416 
L 568.17694 123.923413 
L 568.729151 126.666729 
L 569.281362 133.147911 
L 569.833573 132.564135 
L 570.385784 133.246675 
L 570.937995 130.172733 
L 571.490205 128.381617 
L 573.146838 120.642541 
L 573.699049 122.429144 
L 574.25126 129.117812 
L 574.803471 121.447725 
L 575.355682 126.790395 
L 575.907893 118.304555 
L 576.460103 127.654287 
L 577.012314 110.397455 
L 577.564525 118.544538 
L 578.116736 119.541605 
L 578.668947 119.485906 
L 579.221158 117.369088 
L 579.773369 121.552539 
L 580.32558 124.856347 
L 580.877791 126.119769 
L 581.430001 130.497038 
L 581.982212 125.196731 
L 582.534423 131.187803 
L 583.086634 123.43852 
L 583.638845 123.275805 
L 584.191056 127.563205 
L 584.743267 130.16051 
L 585.295478 125.487065 
L 585.847689 123.42063 
L 586.399899 124.288664 
L 587.504321 122.620932 
L 588.056532 128.356401 
L 588.608743 128.089633 
L 589.160954 125.227342 
L 589.713165 119.310801 
L 590.265376 130.641538 
L 590.817587 117.154577 
L 591.369797 109.536505 
L 591.922008 117.95133 
L 592.474219 116.185593 
L 593.02643 115.700557 
L 593.578641 107.578695 
L 594.130852 111.975376 
L 594.683063 118.864685 
L 595.235274 113.267197 
L 595.787485 111.306286 
L 596.339695 119.814653 
L 596.891906 120.074739 
L 597.444117 118.237772 
L 597.996328 118.488045 
L 598.548539 125.433162 
L 599.10075 120.624897 
L 599.652961 125.630016 
L 600.757383 134.24355 
L 601.309593 126.149001 
L 601.861804 130.397634 
L 602.414015 137.773748 
L 602.966226 137.370927 
L 603.518437 135.018272 
L 604.070648 129.967444 
L 604.622859 128.614842 
L 605.17507 133.837666 
L 605.727281 125.154351 
L 606.279491 131.596231 
L 606.831702 125.44089 
L 607.383913 133.194569 
L 607.936124 134.076386 
L 608.488335 131.636602 
L 609.040546 133.342553 
L 609.592757 128.790887 
L 610.144968 125.437558 
L 610.697178 136.63234 
L 611.249389 128.914059 
L 611.8016 128.900024 
L 612.353811 132.441002 
L 612.906022 134.825283 
L 613.458233 119.555563 
L 614.010444 126.158875 
L 614.562655 123.088841 
L 615.114866 128.434304 
L 615.667076 129.578963 
L 616.219287 128.626875 
L 616.771498 126.706605 
L 617.323709 138.776347 
L 617.87592 143.233041 
L 618.428131 139.722717 
L 618.980342 132.432267 
L 619.532553 131.265808 
L 620.084764 130.777395 
L 620.636974 134.47274 
L 621.189185 134.737144 
L 621.741396 137.543812 
L 622.293607 132.784872 
L 622.845818 139.167139 
L 623.398029 137.307351 
L 623.95024 143.980185 
L 624.502451 136.650914 
L 625.054662 141.044511 
L 625.606872 142.94432 
L 626.159083 138.590199 
L 626.711294 140.190998 
L 627.263505 140.933699 
L 627.815716 135.072105 
L 628.367927 144.777312 
L 628.920138 137.334327 
L 630.02456 139.791778 
L 630.57677 151.90148 
L 631.128981 137.612728 
L 631.681192 145.967883 
L 632.233403 140.647018 
L 632.785614 136.491769 
L 633.337825 141.892027 
L 633.890036 141.470292 
L 634.442247 143.673321 
L 634.994458 147.897894 
L 635.546668 141.754536 
L 636.098879 151.018301 
L 636.65109 139.709352 
L 637.203301 141.19382 
L 637.755512 141.504158 
L 638.307723 140.307961 
L 638.859934 136.415714 
L 639.412145 141.917524 
L 639.964356 148.593686 
L 640.516566 143.583955 
L 641.068777 137.444257 
L 641.620988 142.05922 
L 642.72541 136.995193 
L 643.277621 145.090985 
L 643.829832 137.178092 
L 644.382043 146.189834 
L 644.934254 138.437962 
L 645.486464 148.52504 
L 646.038675 143.962159 
L 646.590886 152.937853 
L 647.143097 151.031363 
L 647.695308 145.554544 
L 648.247519 153.384933 
L 648.79973 147.695982 
L 649.351941 149.82168 
L 649.904151 153.321832 
L 650.456362 150.865292 
L 651.008573 151.169537 
L 651.560784 147.171386 
L 652.112995 154.955028 
L 652.665206 145.662744 
L 653.217417 143.951036 
L 653.769628 139.841784 
L 654.321839 149.646164 
L 654.874049 142.723938 
L 655.42626 147.635485 
L 655.978471 156.512216 
L 656.530682 148.121867 
L 657.082893 153.908806 
L 657.635104 147.83054 
L 658.187315 149.460659 
L 658.739526 147.059787 
L 659.291737 150.948271 
L 659.843947 148.808621 
L 660.396158 149.762638 
L 660.948369 147.401248 
L 661.50058 152.135245 
L 662.052791 146.928648 
L 662.605002 148.051492 
L 663.157213 142.107879 
L 663.709424 148.408205 
L 664.261635 150.775333 
L 664.813845 150.627775 
L 665.366056 147.015082 
L 665.918267 146.594629 
L 666.470478 145.097589 
L 667.022689 142.219316 
L 668.127111 153.02889 
L 668.679322 156.95334 
L 669.231533 150.195383 
L 669.783743 149.996781 
L 670.335954 157.213087 
L 670.888165 157.566748 
L 671.440376 163.143888 
L 671.992587 151.779256 
L 672.544798 154.095472 
L 673.097009 148.903521 
L 673.64922 155.630999 
L 674.201431 159.648285 
L 674.753641 161.241286 
L 675.305852 151.536116 
L 675.858063 149.321283 
L 676.410274 153.273364 
L 676.962485 155.173538 
L 678.066907 158.444271 
L 678.619118 156.327668 
L 679.171329 151.739563 
L 679.723539 152.323201 
L 680.27575 160.234631 
L 680.827961 157.304461 
L 681.380172 159.626199 
L 681.932383 160.22915 
L 682.484594 159.4852 
L 683.036805 162.418309 
L 683.589016 161.20059 
L 684.141227 167.568454 
L 684.693437 161.107058 
L 685.245648 165.493901 
L 685.797859 167.502357 
L 686.35007 153.028981 
L 686.902281 160.174782 
L 687.454492 153.732813 
L 688.006703 162.323905 
L 689.111124 154.058045 
L 689.663335 153.661285 
L 690.215546 155.92701 
L 690.767757 153.671549 
L 691.319968 152.288539 
L 691.319968 152.288539 
" clip-path="url(#pc097f53088)" style="fill: none; stroke: #206583; stroke-width: 1.5; stroke-linecap: square"/>
   </g>
   <g id="patch_6">
    <path d="M 404.308359 227.877656 
L 404.308359 22.317187 
" style="fill: none; stroke: #000000; stroke-width: 0.8; stroke-linejoin: miter; stroke-linecap: square"/>
   </g>
   <g id="patch_7">
    <path d="M 404.308359 227.877656 
L 704.987188 227.877656 
" style="fill: none; stroke: #000000; stroke-width: 0.8; stroke-linejoin: miter; stroke-linecap: square"/>
   </g>
  </g>
 </g>
 <defs>
  <clipPath id="p3b8cc5e757">
   <rect x="55.667188" y="22.317187" width="300.678828" height="205.560469"/>
  </clipPath>
  <clipPath id="pc097f53088">
   <rect x="404.308359" y="22.317187" width="300.678828" height="205.560469"/>
  </clipPath>
 </defs>
</svg>
